<svg width="221" height="120" viewBox="0 0 221 120" fill="none" xmlns="http://www.w3.org/2000/svg">
<path fill-rule="evenodd" clip-rule="evenodd" d="M48.5 102H139.5C140.015 102 140.517 101.944 141 101.839C141.483 101.944 141.985 102 142.5 102H194.5C198.366 102 201.5 98.866 201.5 95C201.5 91.134 198.366 88 194.5 88H188.5C184.634 88 181.5 84.866 181.5 81C181.5 77.134 184.634 74 188.5 74H207.5C211.366 74 214.5 70.866 214.5 67C214.5 63.134 211.366 60 207.5 60H185.5C189.366 60 192.5 56.866 192.5 53C192.5 49.134 189.366 46 185.5 46H121.5C125.366 46 128.5 42.866 128.5 39C128.5 35.134 125.366 32 121.5 32H64.5C60.634 32 57.5 35.134 57.5 39C57.5 42.866 60.634 46 64.5 46H24.5C20.634 46 17.5 49.134 17.5 53C17.5 56.866 20.634 60 24.5 60H49.5C53.366 60 56.5 63.134 56.5 67C56.5 70.866 53.366 74 49.5 74H9.5C5.63401 74 2.5 77.134 2.5 81C2.5 84.866 5.63401 88 9.5 88H48.5C44.634 88 41.5 91.134 41.5 95C41.5 98.866 44.634 102 48.5 102ZM211.5 102C215.366 102 218.5 98.866 218.5 95C218.5 91.134 215.366 88 211.5 88C207.634 88 204.5 91.134 204.5 95C204.5 98.866 207.634 102 211.5 102Z" fill="#F4F4FF"/>
<path fill-rule="evenodd" clip-rule="evenodd" d="M77.5 108C65.3497 108 55.5 98.3741 55.5 86.5C55.5 74.6259 65.3497 65 77.5 65C78.0167 65 78.5292 65.0174 79.037 65.0517C78.6842 63.0878 78.5 61.0654 78.5 59C78.5 40.2223 93.7223 25 112.5 25C127.491 25 140.216 34.702 144.739 48.1695C145.81 48.0575 146.898 48 148 48C164.845 48 178.5 61.4315 178.5 78C178.5 93.7406 166.175 106.727 150.5 107.978V108H94.0078H77.5ZM89.496 108H82.5314H89.496Z" fill="white"/>
<path d="M89.496 108H82.5314M77.5 108C65.3497 108 55.5 98.3741 55.5 86.5C55.5 74.6259 65.3497 65 77.5 65C78.0167 65 78.5292 65.0174 79.037 65.0517C78.6842 63.0878 78.5 61.0654 78.5 59C78.5 40.2223 93.7223 25 112.5 25C127.491 25 140.216 34.702 144.739 48.1695C145.81 48.0575 146.898 48 148 48C164.845 48 178.5 61.4315 178.5 78C178.5 93.7406 166.175 106.727 150.5 107.978V108H94.0078H77.5Z" stroke="#6168E4" stroke-width="2.5" stroke-linecap="round"/>
<path fill-rule="evenodd" clip-rule="evenodd" d="M102.112 32.3426C102.112 64.5657 131.133 91.118 168.5 94.7029C163.817 100.461 156.586 104.368 148.347 104.981V105H81.2431C73.1013 105 59.5 101.57 59.5 86.5483C59.5 71.527 70.0742 68.0967 81.2431 68.0967C81.718 68.0967 82.1891 68.1116 82.6559 68.141C82.3316 66.4556 82.2746 64.7184 82.1623 62.9474C81.4038 50.9842 86.6229 35.907 102.13 31C102.118 31.4473 102.112 31.8944 102.112 32.3426ZM112.616 82.7579C109.578 82.7579 107.114 85.1921 107.114 88.1949C107.114 91.1976 109.578 93.6318 112.616 93.6318C115.655 93.6318 118.118 91.1976 118.118 88.1949C118.118 85.1921 115.655 82.7579 112.616 82.7579Z" fill="#F4F4FF"/>
<path d="M113 94C116.038 94 118.5 91.5376 118.5 88.5C118.5 85.4624 116.038 83 113 83C109.962 83 107.5 85.4624 107.5 88.5C107.5 91.5376 109.962 94 113 94Z" stroke="#6168E4" stroke-width="2.5"/>
<path d="M97.5 76.9998L104.5 71.5066L97.5 66.2773" stroke="#6168E4" stroke-width="2.5" stroke-linecap="round" stroke-linejoin="round"/>
<path d="M128.5 76.9998L121.5 71.5066L128.5 66.2773" stroke="#6168E4" stroke-width="2.5" stroke-linecap="round" stroke-linejoin="round"/>
<path d="M122.5 35C129.009 36.7226 134.148 41.8129 135.94 48.2932" stroke="#9AA0FE" stroke-width="2.5" stroke-linecap="round"/>
<path d="M143.5 18C145.157 18 146.5 16.6569 146.5 15C146.5 13.3431 145.157 12 143.5 12C141.843 12 140.5 13.3431 140.5 15C140.5 16.6569 141.843 18 143.5 18Z" stroke="#9AA0FE" stroke-width="2"/>
<path d="M174.5 34C176.157 34 177.5 32.6569 177.5 31C177.5 29.3431 176.157 28 174.5 28C172.843 28 171.5 29.3431 171.5 31C171.5 32.6569 172.843 34 174.5 34Z" fill="#9AA0FE"/>
<path d="M151.258 25.7578L159.616 34.116M159.743 25.7578L151.385 34.116L159.743 25.7578Z" stroke="#9AA0FE" stroke-width="2.5" stroke-linecap="round" stroke-linejoin="round"/>
<path d="M56.9043 43.5957L62.9043 49.5957M62.9043 43.5957L56.9043 49.5957L62.9043 43.5957Z" stroke="#9AA0FE" stroke-width="2.5" stroke-linecap="round" stroke-linejoin="round"/>
<path d="M70.5 37C72.1569 37 73.5 35.6569 73.5 34C73.5 32.3431 72.1569 31 70.5 31C68.8431 31 67.5 32.3431 67.5 34C67.5 35.6569 68.8431 37 70.5 37Z" fill="#9AA0FE"/>
</svg>
