<svg width="161" height="160" viewBox="0 0 161 160" fill="none" xmlns="http://www.w3.org/2000/svg">
<rect x="1.33333" y="0.833333" width="158.333" height="158.333" rx="79.1667" fill="#F4F4FF"/>
<g clip-path="url(#clip0_465_34938)">
<path d="M50.5 66.6666C50.5 68.4999 52 69.9999 53.8333 69.9999C55.6667 69.9999 57.1667 68.4999 57.1667 66.6666V59.9999H63.8333C65.6667 59.9999 67.1667 58.4999 67.1667 56.6666C67.1667 54.8333 65.6667 53.3333 63.8333 53.3333H57.1667V46.6666C57.1667 44.8333 55.6667 43.3333 53.8333 43.3333C52 43.3333 50.5 44.8333 50.5 46.6666V53.3333H43.8333C42 53.3333 40.5 54.8333 40.5 56.6666C40.5 58.4999 42 59.9999 43.8333 59.9999H50.5V66.6666Z" fill="#9AA0FE"/>
<path d="M83.833 96.6666C89.3559 96.6666 93.833 92.1894 93.833 86.6666C93.833 81.1437 89.3559 76.6666 83.833 76.6666C78.3102 76.6666 73.833 81.1437 73.833 86.6666C73.833 92.1894 78.3102 96.6666 83.833 96.6666Z" fill="#9AA0FE"/>
<path d="M110.5 59.9999H99.9333L95.8 55.4999C95.1788 54.8179 94.4222 54.2729 93.5785 53.8999C92.7348 53.5268 91.8225 53.3338 90.9 53.3333H69.5667C70.1333 54.3333 70.5 55.4333 70.5 56.6666C70.5 60.3333 67.5 63.3333 63.8333 63.3333H60.5V66.6666C60.5 70.3333 57.5 73.3333 53.8333 73.3333C52.6 73.3333 51.5 72.9666 50.5 72.3999V106.667C50.5 110.333 53.5 113.333 57.1667 113.333H110.5C114.167 113.333 117.167 110.333 117.167 106.667V66.6666C117.167 62.9999 114.167 59.9999 110.5 59.9999ZM83.8333 103.333C74.6333 103.333 67.1667 95.8666 67.1667 86.6666C67.1667 77.4666 74.6333 69.9999 83.8333 69.9999C93.0333 69.9999 100.5 77.4666 100.5 86.6666C100.5 95.8666 93.0333 103.333 83.8333 103.333Z" fill="#9AA0FE"/>
</g>
<rect x="1.33333" y="0.833333" width="158.333" height="158.333" rx="79.1667" stroke="#A5A8BA" stroke-width="1.66667" stroke-dasharray="13.33 6.67"/>
<defs>
<clipPath id="clip0_465_34938">
<rect width="80" height="80" fill="white" transform="translate(40.5 40)"/>
</clipPath>
</defs>
</svg>
