<svg width="221" height="120" viewBox="0 0 221 120" fill="none" xmlns="http://www.w3.org/2000/svg">
<g id="Illustration / Box">
<path id="Background" fill-rule="evenodd" clip-rule="evenodd" d="M186.5 27C190.366 27 193.5 30.134 193.5 34C193.5 37.866 190.366 41 186.5 41H146.5C150.366 41 153.5 44.134 153.5 48C153.5 51.866 150.366 55 146.5 55H168.5C172.366 55 175.5 58.134 175.5 62C175.5 65.866 172.366 69 168.5 69H158.326C153.452 69 149.5 72.134 149.5 76C149.5 78.5773 151.5 80.9107 155.5 83C159.366 83 162.5 86.134 162.5 90C162.5 93.866 159.366 97 155.5 97H72.5C68.634 97 65.5 93.866 65.5 90C65.5 86.134 68.634 83 72.5 83H33.5C29.634 83 26.5 79.866 26.5 76C26.5 72.134 29.634 69 33.5 69H73.5C77.366 69 80.5 65.866 80.5 62C80.5 58.134 77.366 55 73.5 55H48.5C44.634 55 41.5 51.866 41.5 48C41.5 44.134 44.634 41 48.5 41H88.5C84.634 41 81.5 37.866 81.5 34C81.5 30.134 84.634 27 88.5 27H186.5ZM186.5 55C190.366 55 193.5 58.134 193.5 62C193.5 65.866 190.366 69 186.5 69C182.634 69 179.5 65.866 179.5 62C179.5 58.134 182.634 55 186.5 55Z" fill="#F4F4FF"/>
<path id="Line" d="M143.5 82.5L149 80.5" stroke="#9AA0FE" stroke-width="2" stroke-linecap="round"/>
<path id="Line_2" d="M141.5 87.5L150 84.5" stroke="#9AA0FE" stroke-width="2" stroke-linecap="round"/>
<path id="Box" d="M79.5 47.5L115.5 57.5M79.5 47.5L115.5 37M79.5 47.5L66.0688 61.8905C65.8112 62.1665 65.9407 62.6175 66.3055 62.7148L78.3446 65.9252M79.5 47.5L69.5269 36.1022C69.2836 35.8241 69.4156 35.3872 69.7722 35.2904L103.727 26.074C103.897 26.0281 104.077 26.0741 104.204 26.1952L115.5 37M115.5 57.5L152 47.5M115.5 57.5L127.802 71.2786C127.924 71.4151 128.111 71.4741 128.289 71.4324L154 65.4221M115.5 57.5L103.204 72.2547C103.08 72.4043 102.88 72.4679 102.691 72.4177L78.3446 65.9252M152 47.5L115.5 37M152 47.5L163.855 36.1193C164.137 35.8485 164.013 35.3732 163.635 35.2747L128.257 26.0669C128.096 26.0251 127.925 26.0657 127.801 26.1754L115.5 37M152 47.5L165.887 61.8663C166.157 62.1454 166.02 62.6123 165.642 62.7006L154 65.4221M116 102L153.656 89.6131C153.861 89.5456 154 89.3541 154 89.1381V65.4221M116 102L77.8588 89.6165C77.6464 89.5475 77.5055 89.3462 77.5135 89.123L78.3446 65.9252M116 102L115.667 78M115.5 67V71.5" stroke="#9AA0FE" stroke-width="2" stroke-linecap="round"/>
</g>
</svg>
