<svg width="221" height="120" viewBox="0 0 221 120" fill="none" xmlns="http://www.w3.org/2000/svg">
<path fill-rule="evenodd" clip-rule="evenodd" d="M48.5 95H139.5C140.015 95 140.517 94.9444 141 94.8389C141.483 94.9444 141.985 95 142.5 95H194.5C198.366 95 201.5 91.866 201.5 88C201.5 84.134 198.366 81 194.5 81H188.5C184.634 81 181.5 77.866 181.5 74C181.5 70.134 184.634 67 188.5 67H207.5C211.366 67 214.5 63.866 214.5 60C214.5 56.134 211.366 53 207.5 53H185.5C189.366 53 192.5 49.866 192.5 46C192.5 42.134 189.366 39 185.5 39H121.5C125.366 39 128.5 35.866 128.5 32C128.5 28.134 125.366 25 121.5 25H64.5C60.634 25 57.5 28.134 57.5 32C57.5 35.866 60.634 39 64.5 39H24.5C20.634 39 17.5 42.134 17.5 46C17.5 49.866 20.634 53 24.5 53H49.5C53.366 53 56.5 56.134 56.5 60C56.5 63.866 53.366 67 49.5 67H9.5C5.63401 67 2.5 70.134 2.5 74C2.5 77.866 5.63401 81 9.5 81H48.5C44.634 81 41.5 84.134 41.5 88C41.5 91.866 44.634 95 48.5 95ZM211.5 95C215.366 95 218.5 91.866 218.5 88C218.5 84.134 215.366 81 211.5 81C207.634 81 204.5 84.134 204.5 88C204.5 91.866 207.634 95 211.5 95Z" fill="#F4F4FF"/>
<path d="M74.384 48.3192L105.729 64.7489C108.754 66.0703 110.239 66.6035 111.953 67.1366C113.5 67.5 115.002 67.2732 116.751 67.1366C118.5 67 119 67 123.415 64.7396L154.867 48.3098M74.384 48.3192C75.1694 47.2813 76.2586 46.4585 78.4372 44.813M74.384 48.3192C73.6888 49.2413 73.1705 50.2843 72.8553 51.3953C72.5 52.6481 72.5 54.0132 72.5 56.7434V85.7656C72.5 91.0015 72.5 93.6197 73.5191 95.6206C74.4167 97.383 75.8426 98.8089 77.605 99.7064C79.6012 100.726 82.2192 100.726 87.4457 100.726H134M154.867 48.3098C155.526 49.2155 156.017 50.2321 156.317 51.3111C156.649 52.5219 156.649 53.8309 156.649 56.4348V76M154.867 48.3098C154.124 47.2813 153.1 46.4585 151.039 44.8083V44.813L124.864 28.7336C121.5 26.5 120.251 25.6033 118.442 25.0844C116.847 24.6293 115.159 24.6067 113.552 25.0189C111.683 25.7919 109.82 26.0849 106.491 28.4765L93.2323 36.1976M83.8935 41.6358L85.9877 40.4162L88.082 39.1967" stroke="#6168E4" stroke-width="3" stroke-linecap="round" stroke-linejoin="round"/>
<path d="M79.6981 48.4212C78.9748 48.0767 78.9301 47.0639 79.6203 46.657L96 36.9997L115.075 26.2851C115.388 26.109 115.772 26.1147 116.08 26.3001L149.895 46.6471C150.581 47.0594 150.529 48.069 149.805 48.409L114.928 64.7988C114.657 64.9262 114.343 64.9253 114.073 64.7965L79.6981 48.4212Z" fill="white"/>
<path d="M75 93.0923V50.5L111.731 69.8071C113.155 70.556 114.853 70.5733 116.293 69.8534L154 51L155.5 99.5L79.9068 98.0914C77.1822 98.0407 75 95.8174 75 93.0923Z" fill="#F4F4FF"/>
<path fill-rule="evenodd" clip-rule="evenodd" d="M163.136 103.664C163.659 103.024 164.128 102.355 164.545 101.663C165.461 100.14 166.121 98.5047 166.525 96.8183C166.933 95.1127 167.078 93.3553 166.96 91.6106C166.857 90.0883 166.553 88.5756 166.048 87.1157C165.547 85.6673 164.847 84.2708 163.949 82.9682C163.414 82.192 162.808 81.449 162.131 80.7483C161.137 79.7196 160.047 78.84 158.89 78.1103C157.645 77.3263 156.322 76.7152 154.956 76.2777C153.244 75.7298 151.464 75.4542 149.683 75.4522C148.298 75.4506 146.912 75.6147 145.559 75.945C144.035 76.3169 142.552 76.8995 141.155 77.6937C139.928 78.3919 138.767 79.2535 137.705 80.2793C136.37 81.5684 135.288 83.0216 134.462 84.5767C133.652 86.0993 133.087 87.7197 132.766 89.3797C132.436 91.0899 132.366 92.8422 132.557 94.5728C132.804 96.8159 133.49 99.0227 134.617 101.055C135.338 102.355 136.239 103.583 137.321 104.704C139.039 106.483 141.045 107.815 143.194 108.699C145.806 109.773 148.63 110.184 151.403 109.925C153.73 109.708 156.021 109.019 158.123 107.856" fill="white"/>
<path d="M163.136 103.664C163.659 103.024 164.128 102.355 164.545 101.663C165.461 100.14 166.121 98.5047 166.525 96.8183C166.933 95.1127 167.078 93.3553 166.96 91.6106C166.857 90.0883 166.553 88.5756 166.048 87.1157C165.547 85.6673 164.847 84.2708 163.949 82.9682C163.414 82.192 162.808 81.449 162.131 80.7483C161.137 79.7196 160.047 78.84 158.89 78.1103C157.645 77.3263 156.322 76.7152 154.956 76.2777C153.244 75.7298 151.464 75.4542 149.683 75.4522C148.298 75.4506 146.912 75.6147 145.559 75.945C144.035 76.3169 142.552 76.8995 141.155 77.6937C139.928 78.3919 138.767 79.2535 137.705 80.2793C136.37 81.5684 135.288 83.0216 134.462 84.5767C133.652 86.0993 133.087 87.7197 132.766 89.3797C132.436 91.0899 132.366 92.8422 132.557 94.5728C132.804 96.8159 133.49 99.0227 134.617 101.055C135.338 102.355 136.239 103.583 137.321 104.704C139.039 106.483 141.045 107.815 143.194 108.699C145.806 109.773 148.63 110.184 151.403 109.925C153.73 109.708 156.021 109.019 158.123 107.856" stroke="#6168E4" stroke-width="2.5" stroke-linecap="round" stroke-linejoin="round"/>
<path d="M157.283 88.4601L149.44 98.2883L144.328 93.3177" stroke="#6168E4" stroke-width="2.5" stroke-linecap="round" stroke-linejoin="round"/>
<path fill-rule="evenodd" clip-rule="evenodd" d="M145.482 79.6915C144.749 79.9663 144.034 80.3001 143.343 80.6932C142.269 81.3041 141.254 82.058 140.324 82.9555C139.943 83.3234 139.586 83.7066 139.252 84.1031M137.963 85.7455C137.698 86.1464 137.453 86.5575 137.23 86.9771C137.066 87.287 136.913 87.6015 136.771 87.92" fill="white"/>
<path d="M145.745 80.3938C146.133 80.2483 146.329 79.8159 146.184 79.4281C146.038 79.0403 145.606 78.8438 145.218 78.9893L145.745 80.3938ZM143.343 80.6932L143.714 81.3452L143.343 80.6932ZM140.324 82.9555L139.803 82.416L140.324 82.9555ZM138.678 83.6202C138.412 83.9371 138.452 84.4103 138.769 84.677C139.086 84.9437 139.559 84.903 139.826 84.586L138.678 83.6202ZM138.588 86.1594C138.817 85.8139 138.722 85.3486 138.377 85.12C138.031 84.8914 137.566 84.9861 137.338 85.3316L138.588 86.1594ZM137.23 86.9771L137.893 87.3291L137.23 86.9771ZM136.086 87.6153C135.917 87.9937 136.088 88.437 136.466 88.6053C136.845 88.7736 137.288 88.6032 137.456 88.2247L136.086 87.6153ZM145.218 78.9893C144.449 79.2779 143.698 79.6285 142.972 80.0413L143.714 81.3452C144.37 80.9718 145.05 80.6547 145.745 80.3938L145.218 78.9893ZM142.972 80.0413C141.844 80.6829 140.778 81.4745 139.803 82.416L140.845 83.495C141.729 82.6415 142.694 81.9252 143.714 81.3452L142.972 80.0413ZM139.803 82.416C139.404 82.8019 139.029 83.2039 138.678 83.6202L139.826 84.586C140.143 84.2092 140.483 83.8449 140.845 83.495L139.803 82.416ZM137.338 85.3316C137.059 85.7527 136.802 86.1844 136.568 86.6251L137.893 87.3291C138.104 86.9306 138.336 86.5402 138.588 86.1594L137.338 85.3316ZM136.568 86.6251C136.395 86.9505 136.234 87.2808 136.086 87.6153L137.456 88.2247C137.591 87.9221 137.736 87.6234 137.893 87.3291L136.568 86.6251Z" fill="#6168E4"/>
<path d="M159.5 15V20.4" stroke="#6168E4" stroke-width="2.5" stroke-linecap="round" stroke-linejoin="round"/>
<path d="M159.5 27.5996V32.9996" stroke="#6168E4" stroke-width="2.5" stroke-linecap="round" stroke-linejoin="round"/>
<path d="M150.5 24H155.9" stroke="#6168E4" stroke-width="2.5" stroke-linecap="round" stroke-linejoin="round"/>
<path d="M163.1 24.0002H168.5" stroke="#6168E4" stroke-width="2.5" stroke-linecap="round" stroke-linejoin="round"/>
<path d="M51.3516 89.7773H43.1758M57.6758 82H40.5H57.6758ZM64.6758 82H62.4546H64.6758Z" stroke="#9AA0FE" stroke-width="2.5" stroke-linecap="round" stroke-linejoin="round"/>
</svg>
