<svg width="221" height="120" viewBox="0 0 221 120" fill="none" xmlns="http://www.w3.org/2000/svg">
<path fill-rule="evenodd" clip-rule="evenodd" d="M48.5 89H139.5C140.015 89 140.517 88.9444 141 88.8389C141.483 88.9444 141.985 89 142.5 89H194.5C198.366 89 201.5 85.866 201.5 82C201.5 78.134 198.366 75 194.5 75H188.5C184.634 75 181.5 71.866 181.5 68C181.5 64.134 184.634 61 188.5 61H207.5C211.366 61 214.5 57.866 214.5 54C214.5 50.134 211.366 47 207.5 47H185.5C189.366 47 192.5 43.866 192.5 40C192.5 36.134 189.366 33 185.5 33H121.5C125.366 33 128.5 29.866 128.5 26C128.5 22.134 125.366 19 121.5 19H64.5C60.634 19 57.5 22.134 57.5 26C57.5 29.866 60.634 33 64.5 33H24.5C20.634 33 17.5 36.134 17.5 40C17.5 43.866 20.634 47 24.5 47H49.5C53.366 47 56.5 50.134 56.5 54C56.5 57.866 53.366 61 49.5 61H9.5C5.63401 61 2.5 64.134 2.5 68C2.5 71.866 5.63401 75 9.5 75H48.5C44.634 75 41.5 78.134 41.5 82C41.5 85.866 44.634 89 48.5 89ZM211.5 89C215.366 89 218.5 85.866 218.5 82C218.5 78.134 215.366 75 211.5 75C207.634 75 204.5 78.134 204.5 82C204.5 85.866 207.634 89 211.5 89Z" fill="#F4F4FF"/>
<path d="M162 2V8" stroke="#6168E4" stroke-width="2.5" stroke-linecap="round" stroke-linejoin="round"/>
<path d="M162 16V22" stroke="#6168E4" stroke-width="2.5" stroke-linecap="round" stroke-linejoin="round"/>
<path d="M152 12H158" stroke="#6168E4" stroke-width="2.5" stroke-linecap="round" stroke-linejoin="round"/>
<path d="M166 12H172" stroke="#6168E4" stroke-width="2.5" stroke-linecap="round" stroke-linejoin="round"/>
<path d="M75 102V106" stroke="#6168E4" stroke-width="2.5" stroke-linecap="round" stroke-linejoin="round"/>
<path d="M75 114V118" stroke="#6168E4" stroke-width="2.5" stroke-linecap="round" stroke-linejoin="round"/>
<path d="M67 110H71" stroke="#6168E4" stroke-width="2.5" stroke-linecap="round" stroke-linejoin="round"/>
<path d="M79 110H83" stroke="#6168E4" stroke-width="2.5" stroke-linecap="round" stroke-linejoin="round"/>
<path fill-rule="evenodd" clip-rule="evenodd" d="M146.211 86.1263C147.602 84.4232 148.852 82.6421 149.961 80.7987C152.401 76.7443 154.16 72.3884 155.234 67.8975C156.321 63.3555 156.709 58.6755 156.394 54.0296C156.12 49.9756 155.311 45.9475 153.965 42.0598C152.631 38.2028 150.768 34.484 148.375 31.015C146.95 28.9479 145.336 26.9696 143.534 25.1036C140.888 22.364 137.986 20.0219 134.902 18.0787C131.589 15.9908 128.066 14.3634 124.426 13.1984C119.868 11.7393 115.128 11.0054 110.386 11C106.697 10.9959 103.007 11.4328 99.4025 12.3125C95.3447 13.3028 91.3953 14.8543 87.6766 16.9692C84.4076 18.8284 81.317 21.123 78.488 23.8547C74.9328 27.2875 72.053 31.1572 69.8512 35.2985C67.6956 39.3531 66.1899 43.6682 65.3366 48.0887C64.4574 52.6429 64.2706 57.3091 64.7789 61.9178C65.4378 67.8911 67.2643 73.7677 70.2644 79.1785C72.184 82.6407 74.5842 85.9123 77.4663 88.8964C82.0416 93.6338 87.3833 97.1826 93.1045 99.5354C100.062 102.397 107.581 103.489 114.965 102.8C121.162 102.221 127.265 100.387 132.861 97.2902" fill="white"/>
<path d="M146.211 86.1263C147.602 84.4232 148.852 82.6421 149.961 80.7987C152.401 76.7443 154.16 72.3884 155.234 67.8975C156.321 63.3555 156.709 58.6755 156.394 54.0296C156.12 49.9756 155.311 45.9475 153.965 42.0598C152.631 38.2028 150.768 34.484 148.375 31.015C146.95 28.9479 145.336 26.9696 143.534 25.1036C140.888 22.364 137.986 20.0219 134.902 18.0787C131.589 15.9908 128.066 14.3634 124.426 13.1984C119.868 11.7393 115.128 11.0054 110.386 11C106.697 10.9959 103.007 11.4328 99.4025 12.3125C95.3447 13.3028 91.3953 14.8543 87.6766 16.9692C84.4076 18.8284 81.317 21.123 78.488 23.8547C74.9328 27.2875 72.053 31.1572 69.8512 35.2985C67.6956 39.3531 66.1899 43.6682 65.3366 48.0887C64.4574 52.6429 64.2706 57.3091 64.7789 61.9178C65.4378 67.8911 67.2643 73.7677 70.2644 79.1785C72.184 82.6407 74.5842 85.9123 77.4663 88.8964C82.0416 93.6338 87.3833 97.1826 93.1045 99.5354C100.062 102.397 107.581 103.489 114.965 102.8C121.162 102.221 127.265 100.387 132.861 97.2902" stroke="#6168E4" stroke-width="2.5" stroke-linecap="round" stroke-linejoin="round"/>
<path fill-rule="evenodd" clip-rule="evenodd" d="M136.201 95.3777C139.107 93.5076 141.691 91.1744 143.372 89.2908L136.201 95.3777Z" fill="white"/>
<path d="M136.201 95.3777C139.107 93.5076 141.691 91.1744 143.372 89.2908" stroke="#6168E4" stroke-width="2.5" stroke-linecap="round"/>
<path d="M152.5 59.617C152.214 59.6221 151.927 59.6246 151.64 59.6246C126.386 59.6246 105.709 39.9362 103.976 15C83.8752 18.1706 68.5 35.6526 68.5 56.7434C68.5 80.0811 87.3255 99 110.548 99C132.809 99 151.03 81.6145 152.5 59.617Z" fill="#F4F4FF"/>
<path fill-rule="evenodd" clip-rule="evenodd" d="M94.5233 55.3729C93.3001 54.2433 91.4025 54.33 90.285 55.5666C89.1676 56.8032 89.2534 58.7214 90.4767 59.8511L104.596 72.889C106.308 74.4704 108.965 74.349 110.529 72.6178C110.595 72.5442 110.595 72.5442 110.658 72.4687L130.807 47.9716C131.866 46.6837 131.692 44.7716 130.418 43.7008C129.144 42.63 127.252 42.806 126.193 44.0939L107.25 67.125L94.5233 55.3729Z" fill="white" stroke="#6168E4" stroke-width="2.5" stroke-linecap="round"/>
<path fill-rule="evenodd" clip-rule="evenodd" d="M96.3243 19.4127C94.3741 20.1444 92.4691 21.0334 90.6288 22.0802C87.769 23.7069 85.0652 25.7145 82.5903 28.1045C81.5758 29.0842 80.6241 30.1046 79.7354 31.1607M76.9854 34.8381C76.2788 35.906 75.6284 37.0007 75.0345 38.1179C74.5959 38.9431 74.188 39.7807 73.8109 40.6288" fill="white"/>
<path d="M96.7633 20.5831C97.4097 20.3406 97.7371 19.62 97.4946 18.9737C97.2521 18.3273 96.5316 17.9999 95.8852 18.2424L96.7633 20.5831ZM90.6288 22.0802L91.2468 23.1667L90.6288 22.0802ZM82.5903 28.1045L81.722 27.2054L82.5903 28.1045ZM78.779 30.3558C78.3345 30.884 78.4023 31.6726 78.9306 32.1171C79.4588 32.5616 80.2473 32.4937 80.6918 31.9655L78.779 30.3558ZM78.0278 35.528C78.4088 34.9523 78.251 34.1767 77.6752 33.7957C77.0995 33.4147 76.324 33.5726 75.943 34.1483L78.0278 35.528ZM75.0345 38.1179L76.1383 38.7047L76.1383 38.7047L75.0345 38.1179ZM72.6687 40.1209C72.3882 40.7518 72.6722 41.4905 73.303 41.771C73.9338 42.0515 74.6726 41.7674 74.9531 41.1366L72.6687 40.1209ZM95.8852 18.2424C93.8738 18.997 91.909 19.9139 90.0108 20.9937L91.2468 23.1667C93.0293 22.1529 94.8743 21.2918 96.7633 20.5831L95.8852 18.2424ZM90.0108 20.9937C87.0608 22.6716 84.2728 24.742 81.722 27.2054L83.4586 29.0037C85.8576 26.687 88.4772 24.7421 91.2468 23.1667L90.0108 20.9937ZM81.722 27.2054C80.6764 28.215 79.6954 29.2669 78.779 30.3558L80.6918 31.9655C81.5528 30.9424 82.4751 29.9535 83.4586 29.0037L81.722 27.2054ZM75.943 34.1483C75.2141 35.2497 74.5434 36.3788 73.9308 37.5312L76.1383 38.7047C76.7135 37.6225 77.3434 36.5623 78.0278 35.528L75.943 34.1483ZM73.9308 37.5312C73.4783 38.3824 73.0576 39.2462 72.6687 40.1209L74.9531 41.1366C75.3183 40.3151 75.7134 39.5039 76.1383 38.7047L73.9308 37.5312Z" fill="#6168E4"/>
</svg>
