<svg width="32" height="32" viewBox="0 0 32 32" fill="none" xmlns="http://www.w3.org/2000/svg">
<rect width="32" height="32" rx="16" fill="#393E86"/>
<path d="M4 25.9066H28V26.6666H4V25.9066ZM5.4 24.4266H26.6V25.1866H5.4V24.4266Z" fill="#6168E4"/>
<path d="M4.7207 25.1466H27.3207V25.9066H4.7207V25.1466ZM6.0807 23.6666H25.8807V24.4266H6.0807V23.6666Z" fill="#EBEEFF"/>
<path d="M5.11914 12.9869H26.8791V13.7469H5.11914V12.9869Z" fill="#9AA0FE"/>
<path d="M4 13.7062H28V14.4662H4V13.7062Z" fill="#EBEEFF"/>
<path d="M16 3.7865L4 10.3465L5 11.8665L16 4.5465L27 11.8665L28 10.3465L16 3.7865Z" fill="#9AA0FE"/>
<path d="M16 2.66663L4 10.3466V11.5066L16 3.78663L28 11.5066V10.3466L16 2.66663Z" fill="#EBEEFF"/>
<path d="M16 4.54651L4 12.2265V12.9865H28V12.2265L16 4.54651Z" fill="#EBEEFF"/>
<path d="M16.001 5.66663L6.04102 12.2266H25.961L16.001 5.66663Z" fill="#6168E4"/>
<path d="M6.59961 15.1465H8.99961V22.9865H6.59961V15.1465Z" fill="#EBEEFF"/>
<path d="M6.32031 22.9868H9.32031V23.7068H6.32031V22.9868ZM6.32031 14.4668H9.32031V15.1468H6.32031V14.4668Z" fill="#9AA0FE"/>
<path d="M6.83984 15.4668H7.11984V22.6668H6.83984V15.4668ZM8.47984 15.4668H8.75984V22.6668H8.47984V15.4668ZM7.91984 15.4668H8.19984V22.6668H7.91984V15.4668ZM7.39984 15.4668H7.67984V22.6668H7.39984V15.4668Z" fill="white"/>
<path d="M12.0801 15.1465H14.4801V22.9865H12.0801V15.1465Z" fill="#EBEEFF"/>
<path d="M11.7598 22.9868H14.7598V23.6668H11.7598V22.9868ZM11.7598 14.4668H14.7598V15.1468H11.7598V14.4668Z" fill="#9AA0FE"/>
<path d="M12.3203 15.4668H12.6003V22.6668H12.3203V15.4668ZM13.9603 15.4668H14.2403V22.6668H13.9603V15.4668ZM13.4003 15.4668H13.6803V22.6668H13.4003V15.4668ZM12.8403 15.4668H13.1203V22.6668H12.8403V15.4668Z" fill="white"/>
<path d="M17.5176 15.1465H19.9176V22.9865H17.5176V15.1465Z" fill="#EBEEFF"/>
<path d="M17.2402 22.9868H20.2402V23.6668H17.2402V22.9868ZM17.2402 14.4668H20.2402V15.1468H17.2402V14.4668Z" fill="#9AA0FE"/>
<path d="M17.7598 15.4668H18.0398V22.6668H17.7598V15.4668ZM19.3998 15.4668H19.6798V22.6668H19.3998V15.4668ZM18.8798 15.4668H19.1598V22.6668H18.8798V15.4668ZM18.3198 15.4668H18.5998V22.6668H18.3198V15.4668Z" fill="white"/>
<path d="M23 15.1465H25.4V22.9865H23V15.1465Z" fill="#EBEEFF"/>
<path d="M22.7207 22.9868H25.7207V23.7068H22.7207V22.9868ZM22.7207 14.4668H25.7207V15.1468H22.7207V14.4668Z" fill="#9AA0FE"/>
<path d="M23.2402 15.4668H23.5202V22.6668H23.2402V15.4668ZM24.8802 15.4668H25.1602V22.6668H24.8802V15.4668ZM24.3202 15.4668H24.6002V22.6668H24.3202V15.4668ZM23.8002 15.4668H24.0802V22.6668H23.8002V15.4668Z" fill="white"/>
</svg>
