<svg width="24" height="24" viewBox="0 0 24 24" fill="none" xmlns="http://www.w3.org/2000/svg">
<path d="M2.40039 8.80039H21.6004M2.40039 8.80039V18.1871C2.40039 19.3817 2.40039 19.9791 2.66199 20.4356C2.89208 20.837 3.25922 21.1633 3.71079 21.3679C4.22319 21.6004 4.89519 21.6004 6.23679 21.6004H17.764C19.1056 21.6004 19.7764 21.6004 20.2888 21.3679C20.7412 21.1631 21.1084 20.8367 21.3388 20.4356C21.6004 19.9791 21.6004 19.3839 21.6004 18.1913V8.80039M2.40039 8.80039V7.94706C2.40039 6.75239 2.40039 6.15506 2.66199 5.69852C2.89239 5.29639 3.25839 4.97106 3.71079 4.76626C4.22439 4.53372 4.89639 4.53372 6.24039 4.53372H7.20039M21.6004 8.80039V7.94386C21.6004 6.75132 21.6004 6.15399 21.3388 5.69852C21.1083 5.29701 20.7408 4.97066 20.2888 4.76626C19.7764 4.53372 19.1044 4.53372 17.7604 4.53372H16.8004M7.20039 4.53372H16.8004M7.20039 4.53372V2.40039M16.8004 4.53372V2.40039M11.7004 17.3337C11.78 17.3337 11.8563 17.3056 11.9125 17.2556C11.9688 17.2056 12.0004 17.1378 12.0004 17.0671V13.3337C12.0004 13.263 11.9688 13.1952 11.9125 13.1452C11.8563 13.0952 11.78 13.0671 11.7004 13.0671H7.50039C7.42083 13.0671 7.34452 13.0952 7.28826 13.1452C7.232 13.1952 7.20039 13.263 7.20039 13.3337V17.0671C7.20039 17.2143 7.33479 17.3337 7.50039 17.3337H11.7004Z" stroke="#A5A8BA" stroke-width="1.6" stroke-linecap="round" stroke-linejoin="round"/>
</svg>
