<svg width="32" height="32" viewBox="0 0 32 32" fill="none" xmlns="http://www.w3.org/2000/svg">
<rect width="32" height="32" rx="16" fill="#393E86"/>
<path d="M27.3346 13.9352H4.66797C4.66797 13.9352 5.34797 20.2063 6.51908 21.9441C7.8413 23.8707 10.9769 26.6663 16.0013 26.6663C21.0258 26.6663 24.1613 23.8707 25.4835 21.9441C26.6546 20.2063 27.3346 13.9352 27.3346 13.9352Z" fill="#9AA0FE"/>
<path d="M27.3346 13.9357C27.3346 16.089 22.2724 17.8268 16.0013 17.8268C9.73019 17.8646 4.66797 16.089 4.66797 13.9357C4.66797 11.7823 9.73019 10.0446 16.0013 10.0446C22.2724 10.0446 27.3346 11.7823 27.3346 13.9357Z" fill="#393E86"/>
<path d="M26.956 13.8602C26.956 15.8246 22.0449 17.4113 16.0005 17.4113C9.95604 17.4113 5.04492 15.8246 5.04492 13.8602C5.04492 11.8957 9.95604 10.3091 16.0005 10.3091C22.0449 10.3469 26.956 11.9335 26.956 13.8602Z" fill="#9AA0FE"/>
<path d="M16.0017 11.5563C10.5995 11.5563 6.10393 12.8029 5.19727 14.4652C6.10393 16.1274 10.5995 17.4118 16.0017 17.4118C21.4039 17.4118 25.8995 16.1652 26.8062 14.4652C25.8995 12.8407 21.4039 11.5563 16.0017 11.5563Z" fill="#FFB323"/>
<path d="M16.0019 20.9255C20.9885 20.9255 25.1819 19.7166 26.7308 18.0166C26.9197 17.1099 27.033 16.2033 27.1463 15.4855C26.1641 17.2988 21.5552 18.6588 16.0019 18.6588C10.4485 18.6588 5.83964 17.2988 4.85742 15.4855C4.97076 16.2033 5.08409 17.1099 5.27298 18.0166C6.82187 19.7166 11.0152 20.9255 16.0019 20.9255Z" fill="#6168E4"/>
<path d="M21.8931 16.1256L21.8175 15.1812L22.1197 15.1434C23.6308 15.0301 24.2353 14.4634 24.2353 14.0479C24.2731 13.5568 23.7064 13.1034 22.8753 12.9523C22.6486 12.9145 22.4219 12.8768 22.1953 12.8768C21.4397 12.8768 20.8353 13.1034 20.0797 13.3679C19.0975 13.7456 18.0019 14.1234 16.3775 14.1234C15.4331 14.1234 14.3753 13.8212 13.2797 13.4812C12.1842 13.1412 11.0131 12.8012 9.99305 12.8012C9.27527 12.8012 8.67083 12.9523 8.14194 13.2923C7.83971 13.4812 7.38638 13.8212 7.49971 14.1234C7.72638 14.6145 9.08638 15.1056 10.2575 15.1056C10.4086 15.1056 10.5219 15.1056 10.673 15.0679L10.9375 15.0301L11.0886 15.9745L10.7486 16.0879C10.5975 16.0879 10.4464 16.1256 10.2575 16.1256C9.01083 16.1256 7.04638 15.6345 6.59305 14.5768C6.44194 14.199 6.3286 13.4056 7.61305 12.6123C8.29305 12.1968 9.08638 11.9701 9.99305 11.9701C11.2019 11.9701 12.4864 12.3479 13.5819 12.6879C14.6019 12.9901 15.5842 13.2923 16.3775 13.2923C17.8131 13.2923 18.8331 12.9145 19.7397 12.5745C20.4953 12.3101 21.2886 12.0079 22.1953 12.0079C22.4975 12.0079 22.7619 12.0456 23.0642 12.0834C24.3864 12.3479 25.2553 13.179 25.2175 14.1612C25.1797 14.9923 24.3486 15.9745 22.1953 16.1256H21.8931Z" fill="white"/>
<path d="M18.9075 16.0123C18.0387 16.0123 17.1698 15.8234 16.3009 15.4079C14.3742 14.539 12.8253 14.3501 11.8431 14.3501C10.6342 14.3501 9.95421 14.6145 9.68977 14.7279L9.4631 14.8412L9.00977 14.0101L9.27421 13.8967C9.61421 13.7456 10.5587 13.3679 12.1453 13.4434C13.6187 13.4812 15.1675 13.859 16.7164 14.5767C17.472 14.9167 18.1898 15.1056 18.9075 15.1056C20.1542 15.1056 21.2498 14.539 21.9298 13.5567L22.0809 13.3301L22.912 13.8212L22.7231 14.0856C22.0431 15.0679 21.0609 15.7101 19.8898 15.9367C19.5875 15.9745 19.2475 16.0123 18.9075 16.0123Z" fill="white"/>
<path d="M16.4164 16.6169L16.1897 16.5036C15.5475 16.2014 14.9052 16.0502 14.1875 16.0502C13.0164 16.0502 12.1852 16.5036 12.1852 16.5036L11.9586 16.6169L11.4297 15.8236L11.6941 15.6725C11.8075 15.5969 12.7897 15.1058 14.1497 15.1058C14.9808 15.1058 15.8119 15.2947 16.5675 15.6725L16.8319 15.7858L16.4164 16.6169ZM12.3741 8.00358L11.9208 7.13469L12.1852 6.98357C13.0541 6.53024 13.4697 4.86802 13.4697 4.83024L13.5452 4.5658L14.4897 4.83024L14.4141 5.09469C14.3764 5.17024 13.8852 7.17246 12.6386 7.85246L12.3741 8.00358ZM16.4541 8.60802L15.6608 8.07913L15.8119 7.85246C15.8119 7.85246 16.4164 6.90802 16.5675 6.03913L16.6052 5.77469L17.5875 5.9258L17.5119 6.15246C17.323 7.2858 16.643 8.34358 16.6052 8.38135L16.4541 8.60802ZM14.943 8.23024L14.1497 7.70135L14.3008 7.47469C14.3008 7.47469 14.9052 6.53024 15.0564 5.66135L15.0941 5.39691L16.0764 5.51024L16.0386 5.77469C15.8497 6.90802 15.1697 7.9658 15.1319 8.00358L14.943 8.23024Z" fill="white"/>
<path d="M27.3347 7.77766L11.9969 4.86877L11.9213 5.28433L27.1835 8.94878L27.3347 7.77766ZM26.4658 11.2154L11.8835 5.69989L11.7324 6.07766L26.088 12.311L26.4658 11.2154Z" fill="#E6674E"/>
<path d="M13.434 7.92828C13.1318 7.92828 12.8674 7.77717 12.6407 7.51273C12.074 6.83272 12.3385 5.5105 12.6785 4.8305C12.9807 4.1505 13.3585 3.99939 13.6229 3.99939C13.8874 3.99939 14.114 4.11272 14.2652 4.30161C14.4918 4.60383 14.454 4.98161 14.4163 5.09495L13.5852 5.05717C13.5852 5.09495 13.5096 5.24606 13.5096 5.24606C13.2452 5.88828 13.2074 6.68161 13.3585 6.90828C13.3963 6.94606 13.3963 6.94606 13.434 6.94606C13.434 6.94606 13.4718 6.98384 13.5096 6.8705L14.4163 7.2105C14.2274 7.62606 13.9252 7.85273 13.5474 7.92828H13.434Z" fill="white"/>
<path d="M15.0588 8.49541C14.7566 8.49541 14.4543 8.3443 14.2654 8.07985C13.4721 7.02207 13.9254 5.62429 14.3788 4.98207C14.7188 4.52874 15.021 4.41541 15.2099 4.41541C15.2854 4.41541 15.361 4.41541 15.3988 4.45318C15.6632 4.56652 16.0788 4.75541 16.0032 5.62429L15.1343 5.47318C14.9077 5.92652 14.7188 7.05985 15.0588 7.55096L15.9277 7.92874C15.7766 8.26874 15.5121 8.49541 15.1721 8.53319C15.0966 8.49541 15.0966 8.49541 15.0588 8.49541Z" fill="white"/>
<path d="M16.569 12.7258C16.8712 11.9325 16.1157 10.6102 15.8512 9.96802C15.3601 8.75914 15.4357 5.54802 16.3423 4.94358C16.6068 4.75469 16.909 4.71691 17.1734 4.86802C17.4379 4.98136 17.7023 5.43469 17.6268 5.96358L16.7579 5.77469C16.5312 6.45469 16.3801 8.83469 16.8334 9.85469C17.1734 10.5725 17.8157 11.7058 17.4379 12.9147C17.1734 13.6702 16.3423 13.2925 16.569 12.7258Z" fill="white"/>
</svg>
