<svg width="32" height="32" viewBox="0 0 32 32" fill="none" xmlns="http://www.w3.org/2000/svg">
<rect width="32" height="32" rx="16" fill="#393E86"/>
<path d="M25.7244 17.2207L28.6865 20.1432L15.5351 26.4227C15.5351 26.4227 13.7974 27.2126 12.968 25.9488C9.72956 20.8936 25.7244 17.2207 25.7244 17.2207Z" fill="#393E86"/>
<path d="M15.2183 22.7499C15.2183 22.7499 12.6907 23.6187 13.1647 25.3169C13.6386 27.0547 15.6528 25.9883 15.6528 25.9883L28.1327 20.1828C28.1327 20.1828 27.4218 18.3266 28.6856 17.1023L15.2183 22.7499Z" fill="#E8E9F0"/>
<path d="M17.3103 5.3335L29.2769 16.9841L15.1382 22.5132L6.05469 8.3745L17.3103 5.3335Z" fill="#6168E4"/>
<path d="M17.6647 7.97986L19.9554 10.4285L11.3853 13.509L9.37109 10.389L17.6647 7.97986Z" fill="white"/>
<path d="M28.0929 18.3652L19.7598 21.7617L27.9744 18.0098L28.0929 18.3652ZM27.9744 19.392L19.0884 23.0649L27.8164 18.9971L27.9744 19.392ZM28.0534 19.9449L16.7188 24.8816L27.8954 19.5895L28.0534 19.9449Z" fill="#4D5267"/>
<path d="M12.967 25.9494C11.5847 23.0664 15.1391 22.553 15.1391 22.553L6.05562 8.37481C6.05562 8.37481 4.00195 8.33531 4.00195 10.468C4.00195 11.3368 4.39689 12.0082 4.39689 12.0082L12.967 25.9494Z" fill="#9AA0FE"/>
</svg>
