<svg width="16" height="17" viewBox="0 0 16 17" fill="none" xmlns="http://www.w3.org/2000/svg">
<path d="M14.8007 12.2557L9.33505 2.76379C9.19847 2.53124 9.00348 2.33843 8.76942 2.20445C8.53537 2.07048 8.27036 2 8.00067 2C7.73098 2 7.46597 2.07048 7.23192 2.20445C6.99786 2.33843 6.80288 2.53124 6.6663 2.76379L1.20067 12.2557C1.06926 12.4806 1 12.7364 1 12.9969C1 13.2574 1.06926 13.5132 1.20067 13.7382C1.3355 13.9721 1.53015 14.166 1.76465 14.2999C1.99914 14.4338 2.26504 14.5028 2.53505 14.5H13.4663C13.7361 14.5026 14.0017 14.4334 14.236 14.2996C14.4702 14.1657 14.6647 13.9719 14.7994 13.7382C14.931 13.5134 15.0005 13.2576 15.0007 12.9971C15.0009 12.7366 14.9319 12.4807 14.8007 12.2557ZM7.50067 7.00004C7.50067 6.86743 7.55335 6.74026 7.64712 6.64649C7.74089 6.55272 7.86806 6.50004 8.00067 6.50004C8.13328 6.50004 8.26046 6.55272 8.35422 6.64649C8.44799 6.74026 8.50067 6.86743 8.50067 7.00004V9.50004C8.50067 9.63265 8.44799 9.75983 8.35422 9.85359C8.26046 9.94736 8.13328 10 8.00067 10C7.86806 10 7.74089 9.94736 7.64712 9.85359C7.55335 9.75983 7.50067 9.63265 7.50067 9.50004V7.00004ZM8.00067 12.5C7.85233 12.5 7.70733 12.4561 7.58399 12.3736C7.46066 12.2912 7.36453 12.1741 7.30776 12.0371C7.251 11.9 7.23614 11.7492 7.26508 11.6037C7.29402 11.4582 7.36545 11.3246 7.47034 11.2197C7.57523 11.1148 7.70887 11.0434 7.85435 11.0145C7.99984 10.9855 8.15064 11.0004 8.28768 11.0571C8.42473 11.1139 8.54186 11.21 8.62427 11.3334C8.70668 11.4567 8.75067 11.6017 8.75067 11.75C8.75067 11.949 8.67165 12.1397 8.531 12.2804C8.39035 12.421 8.19958 12.5 8.00067 12.5Z" fill="#E6674E"/>
</svg>
