<svg width="32" height="32" viewBox="0 0 32 32" fill="none" xmlns="http://www.w3.org/2000/svg">
<rect width="32" height="32" rx="16" fill="#393E86"/>
<path d="M10.6673 5.33289C7.21843 5.33289 5.33398 7.57289 5.33398 10.5596V17.1373H16.0007V10.5596C16.0007 6.15066 13.1207 6.22177 13.1207 6.22177C13.1207 6.22177 12.9073 5.33289 10.6673 5.33289Z" fill="#1F1F26"/>
<path d="M16 16.9954V26.6665H26.6667V16.9954C26.6667 14.9332 16 14.9332 16 16.9954Z" fill="#0067DB"/>
<path d="M5.33398 16.9953V26.6664H16.0007V16.9953C16.0007 14.9331 5.33398 14.9331 5.33398 16.9953Z" fill="#9AA0FE"/>
<path d="M6.89941 13.0133C6.89941 13.0133 6.11719 12.8 6.11719 11.6267C6.11719 10.7022 6.72163 10.5244 6.72163 10.5244C8.85496 10.5244 12.3394 7.7511 12.3394 7.7511C12.3394 7.7511 13.655 10.2044 14.935 10.5244C14.935 10.5244 15.5394 10.6311 15.5394 11.6267C15.5394 12.8 14.7216 13.0133 14.7216 13.0133C14.7216 14.7911 12.3039 16.5689 10.8105 16.5689C9.3883 16.5689 6.89941 14.7911 6.89941 13.0133Z" fill="#FFD2A8"/>
<path d="M8.92675 12.6222C9.35876 12.6222 9.70898 12.272 9.70898 11.84C9.70898 11.408 9.35876 11.0577 8.92675 11.0577C8.49474 11.0577 8.14453 11.408 8.14453 11.84C8.14453 12.272 8.49474 12.6222 8.92675 12.6222Z" fill="#1F1F26"/>
<path d="M12.7666 12.6222C13.1986 12.6222 13.5488 12.272 13.5488 11.84C13.5488 11.408 13.1986 11.0577 12.7666 11.0577C12.3346 11.0577 11.9844 11.408 11.9844 11.84C11.9844 12.272 12.3346 12.6222 12.7666 12.6222Z" fill="#1F1F26"/>
<path d="M12.1269 14.2577C11.3092 14.8977 10.3847 14.8977 9.56693 14.2577C9.46026 14.1866 9.38915 14.3288 9.46027 14.4354C9.70915 14.8977 10.2069 15.2888 10.8469 15.2888C11.4869 15.2888 11.9847 14.8977 12.2336 14.4354C12.3047 14.3288 12.2336 14.1866 12.1269 14.2577Z" fill="#1F1F26"/>
<path d="M15.9648 10.7732L16.4982 11.7688H25.8137L26.2048 10.7376C26.2048 6.96875 25.316 5.40431 21.1915 5.36875C16.996 5.29764 15.9648 6.96875 15.9648 10.7732Z" fill="#1F1F26"/>
<path d="M25.8482 10.7017C25.8126 10.9151 25.7771 11.1284 25.706 11.2351C25.5993 11.4484 25.386 11.5551 25.386 11.5551C25.386 11.5551 25.4571 11.1284 25.4215 10.5595C25.1726 7.11063 24.9948 8.74619 21.1904 8.74619C17.386 8.74619 17.1726 7.07508 16.9593 10.524C16.9237 11.1284 16.9948 11.5195 16.9948 11.5195C16.9948 11.5195 16.7815 11.4129 16.6748 11.1995C16.6037 11.0929 16.5682 10.8795 16.5326 10.6662C16.1771 10.5595 15.7148 10.6662 15.7148 11.6973C15.7148 12.3373 15.9637 12.8706 16.746 12.9417C17.0304 15.1106 19.9104 16.5329 21.226 16.5329C22.506 16.5329 25.4215 15.0751 25.706 12.9417C26.4882 12.8706 26.7371 12.3373 26.7371 11.6973C26.666 10.7017 26.2037 10.6306 25.8482 10.7017Z" fill="#FFD2A8"/>
<path d="M19.2002 12.6222C19.6322 12.6222 19.9824 12.272 19.9824 11.84C19.9824 11.408 19.6322 11.0577 19.2002 11.0577C18.7682 11.0577 18.418 11.408 18.418 11.84C18.418 12.272 18.7682 12.6222 19.2002 12.6222Z" fill="#1F1F26"/>
<path d="M23.1123 12.6222C23.5443 12.6222 23.8945 12.272 23.8945 11.84C23.8945 11.408 23.5443 11.0577 23.1123 11.0577C22.6803 11.0577 22.3301 11.408 22.3301 11.84C22.3301 12.272 22.6803 12.6222 23.1123 12.6222Z" fill="#1F1F26"/>
<path d="M22.4355 14.2579C21.6177 14.8979 20.6933 14.8979 19.8755 14.2579C19.7689 14.1868 19.6977 14.329 19.7689 14.4357C20.0177 14.8979 20.5155 15.289 21.1555 15.289C21.7955 15.289 22.2933 14.8979 22.5422 14.4357C22.6133 14.329 22.5422 14.1868 22.4355 14.2579Z" fill="#1F1F26"/>
<path d="M24.8889 26.666H16C16 23.6794 24.8889 23.6794 24.8889 26.666Z" fill="#6168E4"/>
<path d="M20.4459 17.4213C18.0636 17.4213 16.5703 18.7724 16.5703 20.4435V21.5813C16.5703 22.8968 17.6014 22.8968 17.6014 22.8968H23.4325C23.4325 22.8968 24.3214 22.8968 24.3214 21.5813V20.4435C24.3214 18.7724 22.757 17.4213 20.4459 17.4213Z" fill="#1F1F26"/>
<path d="M16.9252 21.8664L17.0675 20.2664C17.0675 19.2353 18.6675 20.0531 20.4452 20.0531C22.223 20.0531 23.823 19.2353 23.823 20.2664L23.9652 21.8664C24.7475 21.8664 24.7475 23.1109 23.9652 23.1109C23.9652 24.6753 21.8675 25.5998 20.4452 25.5998C19.023 25.5998 16.9252 24.6753 16.9252 23.1109C16.1786 23.1109 16.1786 21.8664 16.9252 21.8664Z" fill="#FFD2A8"/>
<path d="M18.7377 22.9684C19.0911 22.9684 19.3777 22.6818 19.3777 22.3284C19.3777 21.9749 19.0911 21.6884 18.7377 21.6884C18.3842 21.6884 18.0977 21.9749 18.0977 22.3284C18.0977 22.6818 18.3842 22.9684 18.7377 22.9684Z" fill="#1F1F26"/>
<path d="M22.1517 22.9684C22.5052 22.9684 22.7917 22.6818 22.7917 22.3284C22.7917 21.9749 22.5052 21.6884 22.1517 21.6884C21.7983 21.6884 21.5117 21.9749 21.5117 22.3284C21.5117 22.6818 21.7983 22.9684 22.1517 22.9684Z" fill="#1F1F26"/>
<path d="M19.3426 23.9633C20.0537 24.4967 20.8715 24.4967 21.5826 23.9633C21.6537 23.8922 21.7604 23.9989 21.6893 24.1056C21.476 24.4967 21.0137 24.8167 20.4804 24.8167C19.9115 24.8167 19.4848 24.4611 19.2715 24.1056C19.1648 23.9989 19.236 23.8922 19.3426 23.9633Z" fill="#1F1F26"/>
<path d="M15.2889 22.9686H15.6089V20.942C15.6089 18.9864 14.0445 17.4575 11.4845 17.4575C9.03114 17.4575 7.36003 19.022 7.36003 20.942V22.9686H7.7867C7.25336 23.5731 6.8267 24.8886 7.28892 25.7064C7.4667 26.0264 9.3867 27.1997 9.56447 25.1375H13.5111C13.6889 27.1997 15.6089 26.0264 15.7867 25.7064C16.2489 24.8886 15.8223 23.5731 15.2889 22.9686Z" fill="#1F1F26"/>
<path d="M11.4847 18.062C9.28022 18.062 7.78688 19.1998 7.78688 20.622V21.0487C7.78688 19.6265 9.28022 18.4887 11.4847 18.4887C13.7602 18.4887 15.1824 19.6265 15.1824 21.0487V20.622C15.1824 19.1998 13.7958 18.062 11.4847 18.062ZM7.11133 26.6665H16.0002C16.0002 23.6798 7.11133 23.6798 7.11133 26.6665Z" fill="#FFB323"/>
<path d="M15.0398 23.3954C15.0398 23.3954 15.6798 23.5021 15.6798 22.7909C15.6798 22.2221 15.0398 22.2576 15.0398 22.2576V21.6176C15.0398 21.6176 10.2398 21.4043 9.13755 19.5909C9.422 21.4043 7.96422 22.2221 7.96422 22.2221C7.96422 22.2221 7.32422 22.1509 7.32422 22.7554C7.32422 23.4665 7.96422 23.3598 7.96422 23.3598C7.96422 24.4265 9.84866 25.5643 11.5909 25.5643C13.1553 25.5998 15.0398 24.6398 15.0398 23.3954Z" fill="#FFD2A8"/>
<path d="M13.7956 22.3288C13.7956 22.6844 13.5112 22.9688 13.1556 22.9688C12.8001 22.9688 12.5156 22.6844 12.5156 22.3288C12.5156 21.9733 12.8356 21.6888 13.1556 21.6888C13.5112 21.6888 13.7956 21.9733 13.7956 22.3288Z" fill="#1F1F26"/>
<path d="M9.9193 22.9686C10.2728 22.9686 10.5593 22.6821 10.5593 22.3286C10.5593 21.9751 10.2728 21.6886 9.9193 21.6886C9.56583 21.6886 9.2793 21.9751 9.2793 22.3286C9.2793 22.6821 9.56583 22.9686 9.9193 22.9686Z" fill="#1F1F26"/>
<path d="M12.6572 23.9641C11.9461 24.4974 11.1283 24.4974 10.4172 23.9641C10.3461 23.893 10.2394 23.9996 10.3106 24.1063C10.5239 24.4974 10.9861 24.8174 11.5194 24.8174C12.0883 24.8174 12.515 24.4618 12.7283 24.1063C12.835 23.9996 12.7283 23.893 12.6572 23.9641Z" fill="#1F1F26"/>
</svg>
