<svg width="32" height="32" viewBox="0 0 32 32" fill="none" xmlns="http://www.w3.org/2000/svg">
<rect width="32" height="32" rx="16" fill="#393E86"/>
<path d="M8.9471 24.9819C9.51368 24.4153 9.28705 23.6976 8.90933 23.3199C8.53161 22.9422 7.81394 22.7155 7.24736 23.2821C6.68078 23.8487 6.45415 24.9819 6.86964 25.3596C7.24736 25.7751 8.38052 25.5484 8.9471 24.9819ZM7.62508 19.6182C8.19166 19.0517 7.96503 18.334 7.58731 17.9563C7.20959 17.5786 6.49192 17.3519 5.92534 17.9185C5.35876 18.4851 5.13213 19.6182 5.54762 20.0337C5.92534 20.4115 7.0585 20.1848 7.62508 19.6182Z" fill="#FAFAFC"/>
<path d="M23.8672 24.9823C25.6047 24.9823 27.9844 24.5669 27.9844 22.7538C27.9844 20.7519 26.0202 18.8633 23.8672 18.8633V24.9823Z" fill="#6168E4"/>
<path d="M19.7125 21.3176C19.7125 24.717 22.0922 25.0192 23.8297 25.0192C25.5672 25.0192 27.3047 24.226 27.3047 22.7907C27.3047 21.0909 25.5672 18.9001 23.8297 18.9001C22.1299 18.9001 19.7125 19.6178 19.7125 21.3176Z" fill="#9AA0FE"/>
<path d="M20.732 24.9813C26.7377 24.9813 26.7755 17.7668 20.6187 17.7668L20.732 24.9813Z" fill="#6168E4"/>
<path d="M16.9929 20.6388C16.9929 24.6426 19.1082 25.0203 20.7701 25.0203C26.2093 25.0203 26.0582 17.8059 20.6568 17.8059C18.9571 17.7681 16.9929 18.6368 16.9929 20.6388Z" fill="#9AA0FE"/>
<path d="M17.1059 24.9814C23.5649 24.9814 23.3005 17.427 17.1059 17.427V24.9814Z" fill="#6168E4"/>
<path d="M12.7256 20.411C12.7256 24.6037 15.1808 24.9814 17.1072 24.9814C22.433 24.9814 22.433 17.427 17.1072 17.427C15.2186 17.427 12.7256 18.3335 12.7256 20.411Z" fill="#9AA0FE"/>
<path d="M11.8549 24.9811C19.9381 24.9811 19.1827 16.2936 12.4215 16.2936L11.8549 24.9811Z" fill="#6168E4"/>
<path d="M6.9455 20.298C6.9455 24.4907 9.62731 25.0195 11.8559 25.0195C18.6548 25.0195 18.6548 16.1808 11.8559 16.1808C9.62731 16.143 6.9455 18.1827 6.9455 20.298Z" fill="#9AA0FE"/>
<path d="M7.05902 19.5804C7.05902 19.5804 8.41881 21.2423 10.4963 21.5067C12.6115 21.7711 18.0507 20.298 14.6512 15.5765L7.05902 19.5804Z" fill="#6168E4"/>
<path d="M6.18925 17.6538C6.18925 19.8068 8.68221 20.7511 10.7597 20.7511C12.8371 20.7511 15.3301 19.8068 15.3301 17.6538C15.3301 15.5007 12.8371 12.9323 10.7597 12.9323C8.64443 12.9323 6.18925 15.5007 6.18925 17.6538Z" fill="#9AA0FE"/>
<path d="M16.6901 23.9242C15.8968 23.131 15.1036 23.2443 14.6881 23.6598C14.3104 24.0375 14.1593 24.8685 14.9525 25.6617C15.7458 26.4549 17.1433 26.9082 17.5588 26.5305C17.9743 26.115 17.4833 24.7174 16.6901 23.9242ZM15.8968 15.9165C15.1036 16.7097 15.2169 17.5029 15.6324 17.9184C16.0102 18.2962 16.8411 18.4472 17.6344 17.654C18.4276 16.8608 18.8808 15.4633 18.5031 15.0855C18.0876 14.67 16.6901 15.1233 15.8968 15.9165ZM20.8827 24.113C20.2028 23.4332 19.523 23.5465 19.2208 23.8864C18.8808 24.2264 18.7675 24.9063 19.4474 25.5484C20.1273 26.2283 21.2982 26.606 21.6382 26.2661C21.9404 25.9639 21.5626 24.7552 20.8827 24.113ZM24.2067 24.2264C23.6401 23.6598 23.0735 23.7353 22.7713 24.0375C22.5069 24.3019 22.3936 24.9063 22.9602 25.4728C23.5268 26.0394 24.5466 26.3794 24.811 26.0772C25.1132 25.8128 24.7733 24.7929 24.2067 24.2264Z" fill="#FAFAFC"/>
<path d="M18.0123 18.3339L18.39 18.7116L18.0123 19.0894L17.6724 18.7116L18.0123 18.3339ZM19.1455 20.638L19.4854 21.0157L19.1455 21.3934L18.7678 21.0157L19.1455 20.638ZM22.8471 18.7116L23.2249 19.0894L22.8471 19.4293L22.4694 19.0894L22.8471 18.7116ZM25.68 20.2981L26.02 20.638L25.68 21.0157L25.3023 20.638L25.68 20.2981ZM26.2844 21.129L26.6621 21.5068L26.2844 21.8845L25.9067 21.5068L26.2844 21.129ZM15.6705 20.0337L16.0482 20.4114L15.6705 20.7891L15.2927 20.4114L15.6705 20.0337ZM14.7262 21.2046L15.1039 21.5823L14.7262 21.9223L14.3484 21.5823L14.7262 21.2046ZM7.96497 21.0157L8.34269 21.3934L7.96497 21.7334L7.62502 21.3934L7.96497 21.0157ZM8.22937 17.994L8.60709 18.3339L8.22937 18.7116L7.88942 18.3339L8.22937 17.994ZM13.5175 16.9363L13.8952 17.2763L13.5175 17.654L13.1775 17.2763L13.5175 16.9363ZM19.4854 18.5228L20.2409 19.2404L19.4854 19.9959L18.7678 19.2404L19.4854 18.5228ZM7.5117 16.1809L8.22937 16.9363L7.5117 17.654L6.79404 16.9363L7.5117 16.1809ZM23.2249 19.7315L23.9425 20.4869L23.2249 21.2046L22.4694 20.4869L23.2249 19.7315Z" fill="#6168E4"/>
<path d="M13.4415 7.11593L13.7815 7.07816C13.7437 6.36049 14.2725 5.45396 15.2168 5.18956L15.1413 4.84961C14.1214 5.15179 13.366 6.13386 13.4415 7.11593Z" fill="#FAFAFC"/>
<path d="M14.5369 4.50926C14.2347 4.8492 14.2725 5.37801 14.6125 5.68019C14.9524 5.98236 15.4812 5.94459 15.7834 5.60464C16.0856 5.2647 16.0478 4.73589 15.7078 4.43371C15.3679 4.09376 14.8391 4.13154 14.5369 4.50926ZM10.1554 6.92666L10.1931 6.58672C9.47546 6.51117 8.72002 5.75573 8.64448 4.81143L8.30453 4.8492C8.38007 5.86905 9.21106 6.81335 10.1554 6.92666Z" fill="#FAFAFC"/>
<path d="M7.81414 5.34006C8.07855 5.71778 8.60736 5.75556 8.98508 5.49115C9.3628 5.18898 9.40057 4.69794 9.13617 4.32022C8.87176 3.9425 8.34295 3.90473 7.96523 4.16913C7.62529 4.43354 7.54974 4.96234 7.81414 5.34006Z" fill="#FAFAFC"/>
<path d="M7.70296 14.444C8.60949 17.2769 13.8976 17.428 14.6152 15.5771L7.70296 14.444Z" fill="#6168E4"/>
<path d="M6.37982 11.6857C6.19096 15.614 14.1986 18.2958 16.5405 13.6498C18.3158 10.0993 15.5206 6.39761 12.5744 6.05766C7.73961 5.49108 6.45536 9.79709 6.37982 11.6857Z" fill="#9AA0FE"/>
<path d="M9.36412 10.1383C9.36412 10.7804 9.70407 11.2714 10.1196 11.2714C10.5351 11.2714 10.875 10.7804 10.875 10.1383C10.875 9.49616 10.5351 9.00513 10.1196 9.00513C9.70407 9.00513 9.36412 9.53393 9.36412 10.1383Z" fill="#1F1F26"/>
<path d="M14.6137 11.2714C14.1965 11.2714 13.8583 10.7641 13.8583 10.1383C13.8583 9.51246 14.1965 9.00513 14.6137 9.00513C15.0309 9.00513 15.3691 9.51246 15.3691 10.1383C15.3691 10.7641 15.0309 11.2714 14.6137 11.2714Z" fill="#1F1F26"/>
<path d="M12.3862 14.2931C13.2927 14.2931 14.0859 13.9532 14.0859 13.6132C14.0859 13.5755 14.0859 13.5377 14.0482 13.4999C14.0104 13.4622 13.9726 13.4622 13.8971 13.4622C13.8215 13.4622 13.7838 13.4999 13.6704 13.5377C13.4438 13.6132 13.0283 13.8021 12.3484 13.8021C11.6685 13.8021 11.253 13.6132 11.0642 13.5377C10.9509 13.4999 10.9131 13.4622 10.8375 13.4622C10.762 13.4622 10.6865 13.4999 10.6865 13.6132C10.6865 13.9532 11.4797 14.2931 12.3862 14.2931Z" fill="#1F1F26"/>
<g opacity="0.7">
<path d="M8.45536 13.1594C7.78781 13.1594 7.24665 12.7366 7.24665 12.2151C7.24665 11.6935 7.78781 11.2708 8.45536 11.2708C9.12291 11.2708 9.66406 11.6935 9.66406 12.2151C9.66406 12.7366 9.12291 13.1594 8.45536 13.1594Z" fill="#FFB323"/>
<path d="M15.7464 12.8571C15.2041 12.8571 14.7644 12.5527 14.7644 12.1772C14.7644 11.8017 15.2041 11.4973 15.7464 11.4973C16.2888 11.4973 16.7285 11.8017 16.7285 12.1772C16.7285 12.5527 16.2888 12.8571 15.7464 12.8571Z" fill="#FFB323"/>
</g>
</svg>
