<svg width="20" height="21" viewBox="0 0 20 21" fill="none" xmlns="http://www.w3.org/2000/svg">
<g id="Vector">
<path id="Vector_2" d="M15.9061 0.285645V10.504C15.9061 11.5601 15.798 12.6232 15.585 13.6641C15.3797 14.6662 15.0232 15.5716 14.5258 16.3547C14.0436 17.1131 13.3757 17.7395 12.5407 18.2168C11.904 18.5807 11.1169 18.8052 10.1962 18.8901C9.29308 18.8066 8.52009 18.5897 7.89324 18.2399C7.06802 17.7797 6.40168 17.1621 5.91227 16.4042C5.407 15.6225 5.0474 14.7184 4.84249 13.7177C4.6295 12.6798 4.52098 11.5984 4.52098 10.5042V0.2858C3.53656 0.2858 1.45826 0.2858 0.856445 0.2858V10.5042C0.856445 11.7481 0.988127 12.9847 1.24776 14.1793C1.5147 15.4115 1.97675 16.533 2.62023 17.512C3.27926 18.5156 4.16947 19.3319 5.26552 19.9384C6.6198 20.6885 8.24724 20.9035 9.79446 20.8466C10.1656 20.86 10.269 20.8611 10.6632 20.8466C12.184 20.9015 13.7718 20.6943 15.115 19.9686C16.2007 19.3818 17.09 18.591 17.7586 17.6177C18.4144 16.6624 18.8875 15.5475 19.1645 14.304C19.434 13.0975 19.5705 11.8194 19.5705 10.5043V0.285955C18.8527 0.285644 16.6584 0.285645 15.9061 0.285645ZM18.3544 0.633269V10.504C18.3544 11.7935 18.2207 13.0465 17.957 14.2281C17.6894 15.428 17.2339 16.5023 16.6035 17.4206C15.9662 18.3481 15.1175 19.1021 14.0813 19.6624C13.8169 19.8052 13.536 19.9295 13.2392 20.0365C14.9997 19.1454 16.2428 17.7064 16.9909 15.7535C17.2883 15.1335 17.5147 14.4583 17.6635 13.7339C17.8813 12.67 17.9917 11.5833 17.9917 10.504V0.633269H18.3544ZM6.33576 19.095C5.88802 18.7642 5.4866 18.3898 5.13539 17.9722C5.39845 18.1819 5.68155 18.3736 5.98611 18.5432C7.10067 19.1653 8.4904 19.3187 9.76104 19.2671C10.1059 19.2812 10.3094 19.2801 10.6299 19.2671C11.9132 19.3193 13.3412 19.1536 14.4512 18.5182C14.8016 18.318 15.1233 18.0918 15.4171 17.8422C14.8243 18.5781 14.0857 19.1898 13.212 19.6621C12.3763 20.1135 11.3726 20.3829 10.2248 20.4726C9.52566 20.4185 8.88202 20.2978 8.29746 20.1107C7.62319 19.8952 7.02853 19.6071 6.33576 19.095ZM17.4853 0.633269V10.504C17.4853 12.1319 17.261 14.0722 16.6713 15.6167C16.5478 15.8728 16.4129 16.1201 16.264 16.3546C15.7674 17.1352 15.0819 17.7575 14.2788 18.2166C14.0352 18.3557 13.7668 18.4725 13.48 18.5712C14.3829 18.0851 15.1443 17.396 15.6879 16.5413C16.2081 15.7223 16.5803 14.7777 16.7941 13.7337C17.0119 12.6698 17.1224 11.5831 17.1224 10.5039C17.1224 7.20828 17.1224 3.9371 17.1224 0.633114L17.4853 0.633269ZM14.8193 16.5413C15.3394 15.7223 15.7114 14.7777 15.9255 13.7337C16.1433 12.6698 16.2535 11.5831 16.2535 10.5039V0.633114H16.7751C16.7751 3.93694 16.7751 7.20844 16.7751 10.5039C16.7751 11.56 16.6669 12.623 16.4539 13.6639C16.2484 14.666 15.8922 15.5715 15.395 16.3546C14.8933 17.1426 14.2082 17.7606 13.4096 18.2166C13.1661 18.3557 12.8978 18.4725 12.6109 18.5712C12.6447 18.553 12.6801 18.5372 12.7131 18.5184C13.5977 18.0132 14.3065 17.3477 14.8193 16.5413ZM4.17382 0.633269V10.504C4.17382 11.6218 4.28452 12.7264 4.50233 13.7875C4.71563 14.8307 5.09217 15.7747 5.62045 16.5927C6.13459 17.3895 6.85192 18.0701 7.77913 18.5712C7.50908 18.4781 7.25582 18.3691 7.02418 18.2399C6.19895 17.7797 5.53262 17.1621 5.04336 16.4042C4.53824 15.6225 4.17833 14.7184 3.97358 13.7177C3.76043 12.6798 3.65223 11.5984 3.65223 10.5042V0.633424L4.17382 0.633269ZM3.30476 0.633269V10.504C3.30476 11.6218 3.41561 12.7264 3.63311 13.7875C3.84656 14.8307 4.22295 15.7747 4.75123 16.5927C5.2677 17.3926 5.98627 18.0722 6.90991 18.5712C6.63986 18.4781 6.3866 18.3691 6.15526 18.2399C5.33004 17.7797 4.66355 17.1621 4.17429 16.4042C4.09422 16.2803 4.01898 16.1521 3.94637 16.022C3.68115 15.4213 3.4722 14.7816 3.32543 14.1053C3.07093 12.9346 2.94205 11.7232 2.94205 10.504V0.633269H3.30476ZM2.43569 0.633269V10.504C2.43569 11.6218 2.54638 12.7264 2.76419 13.7875C2.9422 14.6584 3.23542 15.4586 3.63451 16.1756C4.33256 17.7522 5.3176 18.9492 6.82906 19.8352C6.88767 19.8692 6.94411 19.9053 7.00365 19.9382C7.0646 19.9718 7.12927 20.0012 7.19161 20.0329C6.93587 19.9409 6.69381 19.8333 6.46263 19.7144C5.33844 19.137 4.43112 18.3124 3.78002 17.3211C3.16002 16.3777 2.71475 15.2958 2.45652 14.1054C2.20233 12.9348 2.07329 11.7234 2.07329 10.5042C2.07329 7.20859 2.07329 3.93741 2.07329 0.633424L2.43569 0.633269ZM2.91096 17.321C2.29095 16.3776 1.84569 15.2957 1.58777 14.1053C1.33342 12.9346 1.20438 11.7232 1.20438 10.504V0.633269H1.72582C1.72582 3.9371 1.72582 7.20859 1.72582 10.504C1.72582 11.7479 1.8575 12.9845 2.11714 14.1791C2.38936 15.4337 2.87489 16.6282 3.60341 17.674C4.25 18.6026 5.09932 19.3652 6.1349 19.9382C6.19553 19.9718 6.26036 20.0012 6.32302 20.0329C5.00682 19.5586 3.748 18.5955 2.91096 17.321ZM19.2233 10.504C19.2233 11.7935 19.0896 13.0465 18.8261 14.2281C18.5585 15.428 18.103 16.5023 17.4727 17.4206C16.8353 18.3481 15.9868 19.1021 14.9503 19.6624C14.6861 19.8052 14.405 19.9295 14.1081 20.0365C16.3972 18.8848 17.7442 16.7793 18.2962 14.3038C18.5655 13.0974 18.7022 11.8191 18.7022 10.5042V0.633424H19.2234V10.504H19.2233Z" fill="url(#paint0_linear_465_34428)"/>
</g>
<defs>
<linearGradient id="paint0_linear_465_34428" x1="0.856539" y1="10.5714" x2="19.5706" y2="10.5714" gradientUnits="userSpaceOnUse">
<stop stop-color="white"/>
<stop offset="1" stop-color="#9AA0FE"/>
</linearGradient>
</defs>
</svg>
