<svg width="76" height="84" viewBox="0 0 76 84" fill="none" xmlns="http://www.w3.org/2000/svg">
<g id="Vector">
<path id="Vector_2" d="M60.6282 0.85791V41.7314C60.6282 45.9558 60.196 50.2081 59.344 54.3716C58.5225 58.3801 57.0966 62.0019 55.1072 65.1342C53.1781 68.1677 50.5066 70.6732 47.1665 72.5823C44.6199 74.0381 41.4714 74.9361 37.7887 75.2757C34.1762 74.9417 31.0843 74.0742 28.5769 72.675C25.276 70.8343 22.6106 68.3636 20.653 65.332C18.6319 62.2052 17.1935 58.5891 16.3739 54.5861C15.5219 50.4345 15.0878 46.1088 15.0878 41.7321V0.858532C11.1501 0.858532 2.83696 0.858532 0.429688 0.858532V41.7321C0.429688 46.7076 0.956412 51.654 1.99494 56.4324C3.06269 61.3613 4.9109 65.8475 7.48483 69.7634C10.1209 73.7776 13.6818 77.043 18.066 79.4689C23.4831 82.4694 29.9929 83.3295 36.1818 83.1019C37.6662 83.1553 38.0797 83.1597 39.6568 83.1019C45.7399 83.3214 52.0911 82.4924 57.4641 79.5896C61.8066 77.2426 65.3637 74.0792 68.0384 70.1863C70.6615 66.3649 72.5538 61.9055 73.662 56.9312C74.7397 52.1055 75.2857 46.9931 75.2857 41.7327V0.859153C72.4145 0.857909 63.6374 0.85791 60.6282 0.85791ZM70.4214 2.24841V41.7314C70.4214 46.8892 69.8866 51.9015 68.8319 56.6277C67.7617 61.4273 65.9396 65.7244 63.4179 69.3978C60.8689 73.1078 57.474 76.1239 53.3293 78.3651C52.2715 78.936 51.1477 79.4335 49.9606 79.8613C57.0027 76.2968 61.9751 70.5407 64.9676 62.7295C66.1572 60.2495 67.0627 57.5487 67.6578 54.6508C68.5291 50.3953 68.9706 46.0485 68.9706 41.7314V2.24841H70.4214ZM22.347 76.0953C20.556 74.7719 18.9503 73.2745 17.5455 71.6041C18.5977 72.443 19.7301 73.2098 20.9484 73.8883C25.4066 76.3764 30.9655 76.9901 36.0481 76.7837C37.4274 76.8403 38.2414 76.8359 39.5237 76.7837C44.6566 76.9926 50.3685 76.3297 54.8087 73.7881C56.2104 72.9872 57.4971 72.0824 58.6724 71.0843C56.3012 74.0276 53.3467 76.4746 49.8517 78.3639C46.5092 80.1691 42.4944 81.2468 37.9031 81.6057C35.1065 81.3892 32.532 80.9067 30.1937 80.1579C27.4967 79.296 25.118 78.1437 22.347 76.0953ZM66.9452 2.24841V41.7314C66.9452 48.243 66.0478 56.004 63.689 62.1822C63.1953 63.2064 62.6555 64.1958 62.0597 65.1336C60.0735 68.256 57.3316 70.7453 54.119 72.5817C53.1446 73.1383 52.0712 73.6053 50.9239 74.0002C54.5357 72.0556 57.581 69.2995 59.7557 65.8805C61.8365 62.6045 63.3252 58.826 64.1803 54.6501C65.0516 50.3947 65.4937 46.0478 65.4937 41.7308C65.4937 28.5485 65.4937 15.4637 65.4937 2.24779L66.9452 2.24841ZM56.2813 65.8805C58.3615 62.6045 59.8496 58.826 60.7059 54.6501C61.5772 50.3947 62.0181 46.0478 62.0181 41.7308V2.24779H64.1044C64.1044 15.4631 64.1044 28.5491 64.1044 41.7308C64.1044 45.9552 63.6716 50.2075 62.8197 54.3709C61.9975 58.3795 60.5728 62.0013 58.5841 65.1336C56.5773 68.2859 53.8367 70.7578 50.6422 72.5817C49.6683 73.1383 48.5949 73.6053 47.4476 74.0002C47.5825 73.9274 47.7243 73.864 47.8562 73.7888C51.3946 71.7683 54.2297 69.1061 56.2813 65.8805ZM13.6992 2.24841V41.7314C13.6992 46.2027 14.142 50.6211 15.0132 54.8653C15.8664 59.038 17.3726 62.814 19.4857 66.0863C21.5422 69.2734 24.4116 71.9959 28.1204 74.0002C27.0402 73.6277 26.0272 73.1918 25.1006 72.675C21.7997 70.8343 19.1344 68.3636 17.1773 65.332C15.1569 62.2052 13.7172 58.5891 12.8982 54.5861C12.0456 50.4345 11.6128 46.1088 11.6128 41.7321V2.24903L13.6992 2.24841ZM10.2229 2.24841V41.7314C10.2229 46.2027 10.6663 50.6211 11.5363 54.8653C12.3902 59.038 13.8957 62.814 16.0088 66.0863C18.0747 69.2858 20.949 72.004 24.6435 74.0002C23.5633 73.6277 22.5503 73.1918 21.625 72.675C18.3241 70.8343 15.6581 68.3636 13.7011 65.332C13.3808 64.8363 13.0798 64.3239 12.7894 63.8034C11.7285 61.4005 10.8927 58.8415 10.3056 56.1364C9.28764 51.4537 8.7721 46.6081 8.7721 41.7314V2.24841H10.2229ZM6.74666 2.24841V41.7314C6.74666 46.2027 7.18944 50.6211 8.06068 54.8653C8.77273 58.349 9.94558 61.5498 11.5419 64.4178C14.3341 70.7242 18.2743 75.512 24.3202 79.056C24.5546 79.1922 24.7803 79.3365 25.0185 79.4683C25.2623 79.6026 25.521 79.7202 25.7704 79.847C24.7474 79.4789 23.7791 79.0485 22.8544 78.5728C18.3576 76.2632 14.7284 72.9648 12.124 68.9998C9.64397 65.2263 7.86292 60.8987 6.82999 56.137C5.81323 51.4544 5.29708 46.6088 5.29708 41.7321C5.29708 28.5497 5.29708 15.465 5.29708 2.24903L6.74666 2.24841ZM8.64773 68.9991C6.1677 65.2256 4.38666 60.8981 3.35497 56.1364C2.33759 51.4537 1.82143 46.6081 1.82143 41.7314V2.24841H3.9072C3.9072 15.4637 3.9072 28.5497 3.9072 41.7314C3.9072 46.707 4.43392 51.6534 5.47245 56.4318C6.56135 61.4503 8.50345 66.2281 11.4175 70.4114C14.0039 74.1258 17.4012 77.1761 21.5435 79.4683C21.786 79.6026 22.0454 79.7202 22.296 79.847C17.0312 77.9497 11.9959 74.0972 8.64773 68.9991ZM73.8971 41.7314C73.8971 46.8892 73.3623 51.9015 72.3082 56.6277C71.2379 61.4273 69.4158 65.7244 66.8948 69.3978C64.3451 73.1078 60.9509 76.1239 56.8049 78.3651C55.7484 78.936 54.624 79.4335 53.4362 79.8613C62.5927 75.2545 67.9806 66.8326 70.1889 56.9305C71.2659 52.1048 71.8126 46.9918 71.8126 41.7321V2.24903H73.8977V41.7314H73.8971Z" fill="url(#paint0_linear_484_23776)"/>
</g>
<defs>
<linearGradient id="paint0_linear_484_23776" x1="0.430061" y1="42.0008" x2="75.2861" y2="42.0008" gradientUnits="userSpaceOnUse">
<stop stop-color="#323689"/>
<stop offset="1" stop-color="#9AA0FE"/>
</linearGradient>
</defs>
</svg>
