<svg width="20" height="22" viewBox="0 0 20 22" fill="none" xmlns="http://www.w3.org/2000/svg">
<g id="Vector">
<path id="Vector_2" d="M15.9061 0.714508V10.9329C15.9061 11.989 15.798 13.0521 15.585 14.0929C15.3797 15.0951 15.0232 16.0005 14.5258 16.7836C14.0436 17.542 13.3757 18.1683 12.5407 18.6456C11.904 19.0096 11.1169 19.2341 10.1962 19.3189C9.29308 19.2355 8.52009 19.0186 7.89324 18.6688C7.06802 18.2086 6.40168 17.5909 5.91227 16.833C5.407 16.0513 5.0474 15.1473 4.84249 14.1466C4.6295 13.1087 4.52098 12.0272 4.52098 10.9331V0.714663C3.53656 0.714663 1.45826 0.714663 0.856445 0.714663V10.9331C0.856445 12.1769 0.988127 13.4135 1.24776 14.6081C1.5147 15.8404 1.97675 16.9619 2.62023 17.9409C3.27926 18.9444 4.16947 19.7608 5.26552 20.3673C6.6198 21.1174 8.24724 21.3324 9.79446 21.2755C10.1656 21.2889 10.269 21.29 10.6632 21.2755C12.184 21.3304 13.7718 21.1231 15.115 20.3974C16.2007 19.8107 17.09 19.0198 17.7586 18.0466C18.4144 17.0913 18.8875 15.9764 19.1645 14.7328C19.434 13.5264 19.5705 12.2483 19.5705 10.9332V0.714819C18.8527 0.714508 16.6584 0.714508 15.9061 0.714508ZM18.3544 1.06213V10.9329C18.3544 12.2223 18.2207 13.4754 17.957 14.657C17.6894 15.8568 17.2339 16.9311 16.6035 17.8495C15.9662 18.777 15.1175 19.531 14.0813 20.0913C13.8169 20.234 13.536 20.3584 13.2392 20.4654C14.9997 19.5742 16.2428 18.1352 16.9909 16.1824C17.2883 15.5624 17.5147 14.8872 17.6635 14.1627C17.8813 13.0989 17.9917 12.0121 17.9917 10.9329V1.06213H18.3544ZM6.33576 19.5238C5.88802 19.193 5.4866 18.8187 5.13539 18.4011C5.39845 18.6108 5.68155 18.8025 5.98611 18.9721C7.10067 19.5941 8.4904 19.7476 9.76104 19.696C10.1059 19.7101 10.3094 19.709 10.6299 19.696C11.9132 19.7482 13.3412 19.5825 14.4512 18.9471C14.8016 18.7468 15.1233 18.5206 15.4171 18.2711C14.8243 19.0069 14.0857 19.6187 13.212 20.091C12.3763 20.5423 11.3726 20.8117 10.2248 20.9014C9.52566 20.8473 8.88202 20.7267 8.29746 20.5395C7.62319 20.324 7.02853 20.036 6.33576 19.5238ZM17.4853 1.06213V10.9329C17.4853 12.5608 17.261 14.501 16.6713 16.0456C16.5478 16.3016 16.4129 16.549 16.264 16.7834C15.7674 17.564 15.0819 18.1864 14.2788 18.6455C14.0352 18.7846 13.7668 18.9014 13.48 19.0001C14.3829 18.5139 15.1443 17.8249 15.6879 16.9701C16.2081 16.1511 16.5803 15.2065 16.7941 14.1626C17.0119 13.0987 17.1224 12.012 17.1224 10.9327C17.1224 7.63715 17.1224 4.36596 17.1224 1.06198L17.4853 1.06213ZM14.8193 16.9701C15.3394 16.1511 15.7114 15.2065 15.9255 14.1626C16.1433 13.0987 16.2535 12.012 16.2535 10.9327V1.06198H16.7751C16.7751 4.36581 16.7751 7.6373 16.7751 10.9327C16.7751 11.9888 16.6669 13.0519 16.4539 14.0928C16.2484 15.0949 15.8922 16.0003 15.395 16.7834C14.8933 17.5715 14.2082 18.1895 13.4096 18.6455C13.1661 18.7846 12.8978 18.9014 12.6109 19.0001C12.6447 18.9819 12.6801 18.966 12.7131 18.9472C13.5977 18.4421 14.3065 17.7766 14.8193 16.9701ZM4.17382 1.06213V10.9329C4.17382 12.0507 4.28452 13.1553 4.50233 14.2164C4.71563 15.2595 5.09217 16.2035 5.62045 17.0216C6.13459 17.8184 6.85192 18.499 7.77913 19.0001C7.50908 18.907 7.25582 18.798 7.02418 18.6688C6.19895 18.2086 5.53262 17.5909 5.04336 16.833C4.53824 16.0513 4.17833 15.1473 3.97358 14.1466C3.76043 13.1087 3.65223 12.0272 3.65223 10.9331V1.06229L4.17382 1.06213ZM3.30476 1.06213V10.9329C3.30476 12.0507 3.41561 13.1553 3.63311 14.2164C3.84656 15.2595 4.22295 16.2035 4.75123 17.0216C5.2677 17.8215 5.98627 18.501 6.90991 19.0001C6.63986 18.907 6.3866 18.798 6.15526 18.6688C5.33004 18.2086 4.66355 17.5909 4.17429 16.833C4.09422 16.7091 4.01898 16.581 3.94637 16.4509C3.68115 15.8502 3.4722 15.2104 3.32543 14.5341C3.07093 13.3635 2.94205 12.1521 2.94205 10.9329V1.06213H3.30476ZM2.43569 1.06213V10.9329C2.43569 12.0507 2.54638 13.1553 2.76419 14.2164C2.9422 15.0873 3.23542 15.8875 3.63451 16.6045C4.33256 18.1811 5.3176 19.378 6.82906 20.264C6.88767 20.2981 6.94411 20.3341 7.00365 20.3671C7.0646 20.4007 7.12927 20.4301 7.19161 20.4618C6.93587 20.3697 6.69381 20.2622 6.46263 20.1432C5.33844 19.5658 4.43112 18.7412 3.78002 17.75C3.16002 16.8066 2.71475 15.7247 2.45652 14.5343C2.20233 13.3636 2.07329 12.1522 2.07329 10.9331C2.07329 7.63746 2.07329 4.36627 2.07329 1.06229L2.43569 1.06213ZM2.91096 17.7498C2.29095 16.8064 1.84569 15.7245 1.58777 14.5341C1.33342 13.3635 1.20438 12.1521 1.20438 10.9329V1.06213H1.72582C1.72582 4.36596 1.72582 7.63746 1.72582 10.9329C1.72582 12.1768 1.8575 13.4134 2.11714 14.608C2.38936 15.8626 2.87489 17.0571 3.60341 18.1029C4.25 19.0315 5.09932 19.7941 6.1349 20.3671C6.19553 20.4007 6.26036 20.4301 6.32302 20.4618C5.00682 19.9875 3.748 19.0243 2.91096 17.7498ZM19.2233 10.9329C19.2233 12.2223 19.0896 13.4754 18.8261 14.657C18.5585 15.8568 18.103 16.9311 17.4727 17.8495C16.8353 18.777 15.9868 19.531 14.9503 20.0913C14.6861 20.234 14.405 20.3584 14.1081 20.4654C16.3972 19.3137 17.7442 17.2082 18.2962 14.7327C18.5655 13.5262 18.7022 12.248 18.7022 10.9331V1.06229H19.2234V10.9329H19.2233Z" fill="url(#paint0_linear_561_8810)"/>
</g>
<defs>
<linearGradient id="paint0_linear_561_8810" x1="0.856539" y1="11.0002" x2="19.5706" y2="11.0002" gradientUnits="userSpaceOnUse">
<stop stop-color="white"/>
<stop offset="1" stop-color="#9AA0FE"/>
</linearGradient>
</defs>
</svg>
