<svg width="32" height="32" viewBox="0 0 32 32" fill="none" xmlns="http://www.w3.org/2000/svg">
<rect width="32" height="32" rx="16" fill="#393E86"/>
<path d="M25.3489 23.1904C25.3489 24.3915 22.3462 24.3248 22.3462 24.3248L13.9719 22.2229C13.3714 22.0894 12.9043 21.4555 12.9043 20.7882V13.6484L25.3489 14.3491V23.1904Z" fill="#2C2C2D"/>
<path d="M24.7475 9.11055L24.2804 9.04382L21.945 10.1782L21.6113 24.8915C23.5464 23.2567 25.348 23.2233 25.348 23.2233V10.4117C25.348 9.87791 25.1145 9.41082 24.7475 9.11055Z" fill="#6168E4"/>
<path d="M22.0788 23.5573C22.0788 24.7584 21.2113 25.5258 20.177 25.2922L7.09853 22.0893C6.33117 21.8892 5.69727 20.9216 5.69727 19.9207V9.14429L22.0788 10.2119V23.5573Z" fill="#9AA0FE"/>
<path d="M22.312 15.5168C22.312 16.7179 21.3111 17.6187 20.2768 17.4185L7.16494 15.2499C6.39758 15.1164 5.76367 14.1822 5.76367 13.1813L6.1974 8.77734L22.3787 10.0785L22.312 15.5168Z" fill="#6168E4"/>
<path d="M6.19696 8.47632C4.96251 9.31041 4.96251 14.4484 6.76414 14.4484L19.876 16.4836C20.9103 16.6504 21.7777 15.7829 21.7777 14.5818C21.7777 14.5818 21.3774 10.6783 22.1114 10.1779L22.7119 9.91095L6.19696 8.47632Z" fill="#9AA0FE"/>
<path d="M15.0044 13.514L11.4679 13.0469L10.834 15.5158L11.4679 17.3508L15.0044 17.9847V13.514Z" fill="#FFB323"/>
<path d="M11.4679 13.0469L10.834 15.5158L14.3705 16.0496L15.0044 13.514L11.4679 13.0469Z" fill="#FFB323"/>
<path d="M11.4679 17.352L15.0044 17.9859L14.3705 16.0508L10.834 15.517L11.4679 17.352Z" fill="#EBEEFF"/>
<path d="M23.5795 8.71021L11.602 7.64258L7.06456 8.17639L6.86438 8.20976C6.63083 8.24312 6.39729 8.34321 6.23047 8.47667L22.1449 10.2116L23.8131 9.47757C25.181 8.8103 25.3478 10.0114 25.3478 10.0114C25.1476 8.94376 24.1801 8.77694 23.5795 8.71021Z" fill="#E8E9F0"/>
<path d="M10.9008 8.04248C10.9008 6.60785 12.0352 6.54112 12.3021 6.44103C12.5356 6.3743 12.7024 6.14076 12.6357 5.94058C12.569 5.74039 12.3354 5.70703 12.1019 5.70703C11.3345 5.70703 10 6.04067 10 8.04248C10.0334 8.27602 10.9008 8.27602 10.9008 8.04248Z" fill="#FFB323"/>
<path d="M10.7348 7.94284C10.7014 7.74266 10.7014 7.54248 10.7682 7.3423C10.8015 7.14212 10.9016 6.94194 11.0351 6.80848C11.1685 6.64166 11.3687 6.54157 11.5355 6.47485C11.7357 6.40812 11.9359 6.37476 12.1361 6.37476C11.9359 6.44148 11.7691 6.50821 11.6023 6.57494C11.4354 6.67503 11.2686 6.77512 11.1685 6.90857C10.9016 7.17548 10.8015 7.54248 10.7348 7.94284Z" fill="#FFB323"/>
<path d="M19.2435 6.94222C19.2101 7.5094 18.7097 7.94313 18.1425 7.8764L11.9703 7.37595C11.4031 7.34258 10.9694 6.84213 11.0361 6.27495C11.0694 5.70777 11.5699 5.27404 12.1371 5.34077L18.276 5.84122C18.8765 5.87459 19.3102 6.37504 19.2435 6.94222Z" fill="#9AA0FE"/>
<path d="M19.2424 6.942C19.2091 7.309 18.742 7.54254 18.1748 7.47581L12.0025 6.97536C11.4354 6.942 11.0016 6.60836 11.035 6.24136C11.0684 5.87436 11.5355 5.64082 12.1026 5.67418L18.2415 6.17463C18.8421 6.27473 19.2758 6.575 19.2424 6.942Z" fill="#6168E4"/>
<path d="M19.3414 9.00995C19.3414 8.1425 18.7075 7.60868 18.3405 7.44187C17.7733 7.20832 18.2404 6.20742 18.7742 6.47433C19.4415 6.7746 20.3423 7.70878 20.3423 9.00995C20.3757 9.31023 19.3414 9.31023 19.3414 9.00995Z" fill="#FFB323"/>
<path d="M19.4765 9.01094C19.4098 8.61057 19.3097 8.24357 19.0761 7.9433C18.8759 7.64303 18.609 7.34276 18.2754 7.14258C18.4756 7.17594 18.6424 7.27603 18.8092 7.40949C18.976 7.54294 19.1095 7.67639 19.2096 7.84321C19.4431 8.21021 19.5432 8.61057 19.4765 9.01094Z" fill="#FFB323"/>
</svg>
