<svg width="24" height="24" viewBox="0 0 24 24" fill="none" xmlns="http://www.w3.org/2000/svg">
<path d="M15.001 12.001C15.001 12.7966 14.6849 13.5597 14.1223 14.1223C13.5597 14.6849 12.7966 15.001 12.001 15.001C11.2053 15.001 10.4423 14.6849 9.87966 14.1223C9.31705 13.5597 9.00098 12.7966 9.00098 12.001C9.00098 11.2053 9.31705 10.4423 9.87966 9.87966C10.4423 9.31705 11.2053 9.00098 12.001 9.00098C12.7966 9.00098 13.5597 9.31705 14.1223 9.87966C14.6849 10.4423 15.001 11.2053 15.001 12.001Z" fill="#171A26"/>
<path d="M21.8944 11.554C19.7364 7.23698 15.9044 5.00098 12.0004 5.00098C8.09744 5.00098 4.26444 7.23698 2.10644 11.554C2.03708 11.6928 2.00098 11.8458 2.00098 12.001C2.00098 12.1561 2.03708 12.3092 2.10644 12.448C4.26444 16.765 8.09644 19.001 12.0004 19.001C15.9034 19.001 19.7364 16.765 21.8944 12.448C21.9638 12.3092 21.9999 12.1561 21.9999 12.001C21.9999 11.8458 21.9638 11.6928 21.8944 11.554ZM12.0004 17.001C9.03144 17.001 5.99844 15.381 4.13044 12.001C5.99844 8.62098 9.03044 7.00098 12.0004 7.00098C14.9694 7.00098 18.0024 8.62098 19.8704 12.001C18.0024 15.381 14.9694 17.001 12.0004 17.001Z" fill="#171A26"/>
</svg>
