<svg width="24" height="24" viewBox="0 0 24 24" fill="none" xmlns="http://www.w3.org/2000/svg">
<path d="M4.70647 3.29243C4.51786 3.11027 4.26526 3.00948 4.00306 3.01176C3.74087 3.01403 3.49006 3.1192 3.30465 3.30461C3.11924 3.49002 3.01407 3.74083 3.01179 4.00303C3.00951 4.26523 3.11031 4.51783 3.29247 4.70643L5.71647 7.13043C4.28647 8.20643 3.03847 9.68443 2.10547 11.5524C2.03611 11.6912 2 11.8443 2 11.9994C2 12.1546 2.03611 12.3076 2.10547 12.4464C4.26347 16.7634 8.09547 18.9994 11.9995 18.9994C13.5545 18.9994 15.0995 18.6444 16.5295 17.9444L19.2925 20.7064C19.4811 20.8886 19.7337 20.9894 19.9959 20.9871C20.2581 20.9848 20.5089 20.8797 20.6943 20.6942C20.8797 20.5088 20.9849 20.258 20.9871 19.9958C20.9894 19.7336 20.8886 19.481 20.7065 19.2924L4.70647 3.29243ZM15.0135 16.4274C14.0335 16.8104 13.0135 16.9994 11.9995 16.9994C9.03047 16.9994 5.99747 15.3794 4.12947 11.9994C4.94647 10.5204 5.98747 9.37943 7.14747 8.56243L9.29147 10.7064C9.02355 11.2664 8.93593 11.8957 9.04068 12.5075C9.14543 13.1193 9.4374 13.6836 9.87634 14.1226C10.3153 14.5615 10.8796 14.8535 11.4914 14.9582C12.1032 15.063 12.7325 14.9753 13.2925 14.7074L15.0125 16.4274H15.0135ZM18.5515 13.8954C19.0345 13.3394 19.4775 12.7084 19.8695 11.9994C18.0015 8.61943 14.9695 6.99943 11.9995 6.99943C11.8875 6.99943 11.7755 7.00143 11.6635 7.00643L9.87847 5.22243C10.5757 5.0743 11.2866 4.99955 11.9995 4.99943C15.9025 4.99943 19.7355 7.23543 21.8935 11.5524C21.9628 11.6912 21.9989 11.8443 21.9989 11.9994C21.9989 12.1546 21.9628 12.3076 21.8935 12.4464C21.3809 13.4821 20.7336 14.4455 19.9685 15.3114L18.5515 13.8954Z" fill="#1F1F26"/>
</svg>
