<svg width="32" height="32" viewBox="0 0 32 32" fill="none" xmlns="http://www.w3.org/2000/svg">
<rect width="32" height="32" rx="16" fill="#393E86"/>
<path d="M19.6774 26.7381C19.606 26.7381 19.499 26.7024 19.4276 26.6667C19.2849 26.5597 19.2136 26.417 19.2493 26.2743C19.2493 26.2386 20.1411 22.4214 14.8613 18.2475C14.6829 18.1048 14.6829 17.855 14.8256 17.7123C14.9683 17.534 15.2537 17.534 15.3964 17.6767C19.606 21.0301 20.1768 24.1338 20.1411 25.6321C23.5302 23.456 25.421 21.2085 25.8134 18.9253C26.1345 16.8205 24.9929 15.5362 24.9572 15.4648C24.8145 15.2865 24.8502 15.0724 24.9929 14.9297C25.1713 14.787 25.421 14.8227 25.5637 14.9654C25.635 15.0367 26.9907 16.5707 26.5983 18.9966C26.1702 21.6366 23.9227 24.2408 19.8201 26.7024C19.8557 26.7024 19.7487 26.7381 19.6774 26.7381Z" fill="#EBEEFF"/>
<path d="M15.9667 26.7379C15.8597 26.7379 15.7883 26.7022 15.6813 26.6308C15.5386 26.5238 15.5029 26.3454 15.5743 26.1671C15.6456 26.0244 17.144 22.8493 13.1127 18.604C12.97 18.4257 12.97 18.2116 13.1484 18.0689C13.3268 17.9262 13.5765 17.9262 13.7192 18.1046C16.7159 21.2796 16.8942 23.9552 16.6445 25.3822C23.4584 20.5305 22.8162 16.4635 22.8162 16.4279C22.7806 16.2495 22.8876 16.1068 23.0303 15.9998C23.2087 15.9284 23.387 15.9641 23.5297 16.0711C28.0961 20.7088 24.9567 23.5271 24.9567 23.5628C24.7783 23.7055 24.5286 23.7055 24.3503 23.5628C24.2076 23.4201 24.2076 23.1704 24.3503 23.0277C24.4573 22.9207 26.5621 20.9586 23.6011 17.4268C23.387 19.1748 22.1741 22.7423 16.1451 26.6665C16.1094 26.7022 16.038 26.7379 15.9667 26.7379Z" fill="#EBEEFF"/>
<path d="M22.9234 26.7381H22.8164C22.6023 26.6668 22.4596 26.4528 22.531 26.2744C22.5667 26.1317 23.5656 22.6356 18.8922 18.6043C18.5354 19.8529 17.3938 22.5642 14.0761 25.2041C13.8977 25.3468 13.648 25.3112 13.5053 25.1685C13.3626 24.9901 13.3626 24.776 13.541 24.6333C17.6792 21.3513 18.25 17.8551 18.25 17.8195C18.2857 17.6768 18.357 17.5697 18.4997 17.4984C18.6424 17.4627 18.7851 17.4627 18.9278 17.5697C24.6358 22.1004 23.4229 26.2744 23.3515 26.4528C23.2802 26.6311 23.1018 26.7381 22.9234 26.7381Z" fill="#EBEEFF"/>
<path d="M15.5008 19.317C10.9701 19.317 11.5409 17.1051 12.1474 16.2846C13.8241 14.0371 20.1742 11.7539 23.5276 11.7539C27.3805 11.7539 26.774 13.8944 25.9535 14.9646C24.1341 17.4262 18.8542 19.317 15.5008 19.317ZM23.5276 12.8598C20.7807 12.8598 15.7148 14.7149 14.0381 16.3203C13.717 16.6413 13.1106 17.4975 15.5365 17.4975C18.5331 17.4975 23.0995 15.6425 24.4908 14.0014C24.9546 13.3949 25.2043 12.8598 23.5276 12.8598Z" fill="#6168E4"/>
<path d="M12.4689 19.6027C16.4095 19.6027 19.6039 16.4082 19.6039 12.4677C19.6039 8.52719 16.4095 5.33276 12.4689 5.33276C8.52841 5.33276 5.33398 8.52719 5.33398 12.4677C5.33398 16.4082 8.52841 19.6027 12.4689 19.6027Z" fill="#FFB323"/>
<path d="M7.40312 7.47273C7.54582 8.0792 7.79554 8.61432 8.08094 9.14945C8.36634 9.68457 8.68741 10.2197 9.00848 10.7191C9.6863 11.718 10.3998 12.7169 11.1846 13.6445C11.9695 14.572 12.79 15.4639 13.6819 16.2844C14.1456 16.6768 14.6094 17.0692 15.1089 17.3903C15.6083 17.7471 16.1434 17.9968 16.7499 18.1752C16.1434 18.1395 15.537 17.8898 14.9662 17.6044C14.3954 17.319 13.8959 16.9622 13.3965 16.5698C12.4333 15.7849 11.5414 14.8931 10.7565 13.9655C9.9717 13.0023 9.25821 12.0034 8.65174 10.8975C8.36634 10.3981 8.08094 9.82727 7.83122 9.25647C7.61717 8.68567 7.43879 8.0792 7.40312 7.47273ZM5.33398 12.2888C5.76208 13.1807 6.2972 14.0012 6.93935 14.679C7.61717 15.3569 8.40201 15.892 9.29388 16.2844C10.1501 16.6768 11.1133 16.9622 12.0052 17.3546C12.4689 17.5687 12.9327 17.7827 13.3251 18.1395C13.7176 18.4606 14.0029 18.96 14.0743 19.4238C13.8959 18.96 13.5749 18.6033 13.1824 18.3535C12.79 18.1038 12.3262 17.9254 11.8625 17.7827C10.9349 17.4617 9.9717 17.2119 9.04416 16.7838C8.11661 16.3557 7.26042 15.785 6.61828 15.0001C5.97613 14.1796 5.54803 13.252 5.33398 12.2888ZM18.2126 16.7125C17.6418 16.9622 16.964 17.0692 16.3218 16.7838C15.6797 16.4984 15.3229 15.8563 15.0732 15.2855C14.5737 14.0726 14.3954 12.8239 14.1456 11.611C13.8959 10.3981 13.6105 9.18512 13.0754 8.11488C12.5403 7.04464 11.6484 6.08142 10.4711 5.65332C11.0776 5.79602 11.6841 6.08142 12.1835 6.47384C12.683 6.86626 13.1111 7.40138 13.4322 7.9365C14.0743 9.04242 14.3954 10.3267 14.6808 11.5397L15.0375 13.3947C15.1445 14.0012 15.2872 14.6077 15.5013 15.1785C15.7153 15.7493 15.9651 16.2844 16.4645 16.6055C16.9283 16.8909 17.6061 16.8552 18.2126 16.7125Z" fill="#231F20"/>
<path d="M16.6081 6.6521C16.9291 6.86615 17.1789 7.18722 17.3572 7.54397C17.5356 7.90072 17.714 8.25746 17.821 8.64989C18.0707 9.39906 18.1777 10.1839 18.2134 11.0044C18.2848 12.5741 17.8923 14.2508 17.0005 15.6065C16.5367 16.2843 15.9659 16.8551 15.2881 17.3188C14.6103 17.7826 13.8611 18.1037 13.0763 18.2821C11.5422 18.6745 9.9012 18.6388 8.36719 18.3891C9.93688 18.4248 11.5066 18.3534 12.9336 17.8896C14.3962 17.4259 15.6805 16.5697 16.501 15.3211C17.3572 14.0724 17.714 12.5384 17.7496 11.0401C17.7496 10.2909 17.6783 9.50608 17.5356 8.75691C17.3929 7.97207 17.1789 7.18722 16.6081 6.6521Z" fill="#231F20"/>
</svg>
