<svg aria-hidden="true" style="position: absolute; width: 0; height: 0; overflow: hidden;" version="1.1" xmlns="http://www.w3.org/2000/svg" xmlns:xlink="http://www.w3.org/1999/xlink">
<defs>
<symbol id="arrow" viewBox="0 0 25 24">
  <path fill="none"  d="M17.0996 21L8.09961 12L17.0996 3" stroke-width="1.6" stroke-linecap="round" stroke-linejoin="round"/>
</symbol>
<symbol id="close" viewBox="0 0 24 24">
  <path d="M19 19L12 12M12 12L5 5M12 12L19 5M12 12L5 19" stroke-width="1.6" stroke-linecap="round" stroke-linejoin="round"/>
</symbol>
<symbol id="chat" viewBox="0 0 24 24">
  <path fill="none" d="M7 8H17.5M7 11.5H14.5M4.88889 19.9362C3.96333 20.6447 3.50111 21 3.11222 21C2.94504 21.0001 2.77998 20.9641 2.62934 20.8947C2.47871 20.8252 2.34638 20.7241 2.24222 20.5989C2 20.3085 2 19.7415 2 18.6074V6.40426C2 5.21277 2 4.61702 2.24222 4.1617C2.45521 3.76133 2.79517 3.43584 3.21333 3.23191C3.68889 3 4.31111 3 5.55556 3H18.4444C19.6889 3 20.3111 3 20.7856 3.23191C21.204 3.43578 21.5444 3.76126 21.7578 4.1617C22 4.61596 22 5.2117 22 6.40106V14.4936C22 15.6809 22 16.2766 21.7578 16.7319C21.5447 17.1322 21.2048 17.4577 20.7867 17.6617C20.3122 17.8936 19.69 17.8936 18.4478 17.8936H8.80222C8.34 17.8936 8.11 17.8936 7.88889 17.9372C7.69222 17.9755 7.50222 18.0394 7.32444 18.1266C7.12556 18.2234 6.94667 18.3596 6.59333 18.6309L4.88889 19.9362Z" stroke-width="1.6" stroke-linecap="round" stroke-linejoin="round"/>
</symbol>
<symbol id="search" viewBox="0 0 24 24">
  <path fill="none" d="M15.2004 15.2004L21.6004 21.6004M9.86706 17.3337C8.88652 17.3337 7.91559 17.1406 7.00969 16.7654C6.10379 16.3901 5.28067 15.8401 4.58733 15.1468C3.89398 14.4534 3.34399 13.6303 2.96876 12.7244C2.59352 11.8185 2.40039 10.8476 2.40039 9.86706C2.40039 8.88652 2.59352 7.91559 2.96876 7.00969C3.34399 6.10379 3.89398 5.28067 4.58733 4.58733C5.28067 3.89398 6.10379 3.34399 7.00969 2.96876C7.91559 2.59352 8.88652 2.40039 9.86706 2.40039C11.8473 2.40039 13.7465 3.18705 15.1468 4.58733C16.5471 5.9876 17.3337 7.88677 17.3337 9.86706C17.3337 11.8473 16.5471 13.7465 15.1468 15.1468C13.7465 16.5471 11.8473 17.3337 9.86706 17.3337Z" stroke-width="1.6" stroke-linecap="round" stroke-linejoin="round"/>
</symbol>
<symbol id="filter" viewBox="0 0 24 24">
  <path fill="none" d="M21.6004 4.31941C21.6004 3.64741 21.6004 3.31141 21.4684 3.05461C21.3538 2.82891 21.1706 2.64533 20.9452 2.53021C20.6884 2.39941 20.3524 2.39941 19.6804 2.39941H4.32039C3.64839 2.39941 3.31239 2.39941 3.05559 2.53021C2.82981 2.64526 2.64624 2.82883 2.53119 3.05461C2.40039 3.31141 2.40039 3.64741 2.40039 4.31941V5.20381C2.40039 5.49781 2.40039 5.64421 2.43399 5.78221C2.46337 5.90507 2.51197 6.02252 2.57799 6.13021C2.65119 6.25021 2.75559 6.35461 2.96199 6.56221L9.03759 12.6366C9.24519 12.8442 9.34959 12.9486 9.42279 13.0686C9.48879 13.1766 9.53799 13.2942 9.56679 13.4166C9.60039 13.5534 9.60039 13.6986 9.60039 13.9854V19.6926C9.60039 20.721 9.60039 21.2358 9.81639 21.5454C9.9101 21.6793 10.0302 21.7927 10.1693 21.8785C10.3083 21.9643 10.4635 22.0209 10.6252 22.0446C10.9984 22.0998 11.4592 21.8706 12.3784 21.4098L13.3384 20.9298C13.7248 20.7378 13.9168 20.6418 14.0572 20.4978C14.1817 20.3706 14.2764 20.2173 14.3344 20.049C14.4004 19.8594 14.4004 19.6434 14.4004 19.2126V13.995C14.4004 13.701 14.4004 13.5546 14.434 13.4166C14.4633 13.2937 14.5119 13.1763 14.578 13.0686C14.65 12.9486 14.7544 12.8454 14.9584 12.6414L14.9632 12.6366L21.0388 6.56221C21.2452 6.35461 21.3484 6.25021 21.4228 6.13021C21.4889 6.02257 21.5375 5.90511 21.5668 5.78221C21.6004 5.64661 21.6004 5.50021 21.6004 5.21341V4.31941Z" stroke-width="1.6" stroke-linecap="round" stroke-linejoin="round"/>
</symbol>
<symbol id="edit" viewBox="0 0 24 24">
  <path fill="none" d="M16 12L8 20H4V16L12 8L14.869 5.131L14.87 5.13C15.265 4.735 15.463 4.537 15.691 4.463C15.8918 4.39775 16.1082 4.39775 16.309 4.463C16.537 4.537 16.734 4.735 17.129 5.129L18.869 6.869C19.265 7.265 19.463 7.463 19.537 7.691C19.6023 7.89183 19.6023 8.10817 19.537 8.309C19.463 8.537 19.265 8.735 18.869 9.131L16 12.001L12 8.001" stroke-width="1.6" stroke-linecap="round" stroke-linejoin="round"/>
</symbol>
<symbol id="checked" viewBox="0 0 24 24">
  <path fill="none" d="M4 12.0008L8.95 16.9508L19.557 6.34375" stroke-width="1.6" stroke-linecap="round" stroke-linejoin="round"/>
</symbol>
<symbol id="double-checked" viewBox="0 0 24 24">
  <path fill="none" d="M8 12.4842L12.243 16.7272L20.727 8.24219M3 12.4842L7.243 16.7272M15.728 8.24219L12.5 11.4992" stroke-width="1.6" stroke-linecap="round" stroke-linejoin="round"/>
</symbol>
<symbol id="circle-check" viewBox="0 0 24 24">
  <path fill="none" d="M15 9.99902L11 13.999L9 11.999M12 20.999C10.8181 20.999 9.64778 20.7662 8.55585 20.3139C7.46392 19.8616 6.47177 19.1987 5.63604 18.363C4.80031 17.5273 4.13738 16.5351 3.68508 15.4432C3.23279 14.3512 3 13.1809 3 11.999C3 10.8171 3.23279 9.6468 3.68508 8.55487C4.13738 7.46294 4.80031 6.47079 5.63604 5.63506C6.47177 4.79933 7.46392 4.1364 8.55585 3.68411C9.64778 3.23182 10.8181 2.99902 12 2.99902C14.3869 2.99902 16.6761 3.94723 18.364 5.63506C20.0518 7.32289 21 9.61208 21 11.999C21 14.386 20.0518 16.6752 18.364 18.363C16.6761 20.0508 14.3869 20.999 12 20.999Z" stroke-width="1.6" stroke-linecap="round" stroke-linejoin="round"/>
</symbol>
<symbol id="calendar" viewBox="0 0 24 24">
  <path fill="none" d="M2.40039 8.80039H21.6004M2.40039 8.80039V18.1871C2.40039 19.3817 2.40039 19.9791 2.66199 20.4356C2.89208 20.837 3.25922 21.1633 3.71079 21.3679C4.22319 21.6004 4.89519 21.6004 6.23679 21.6004H17.764C19.1056 21.6004 19.7764 21.6004 20.2888 21.3679C20.7412 21.1631 21.1084 20.8367 21.3388 20.4356C21.6004 19.9791 21.6004 19.3839 21.6004 18.1913V8.80039M2.40039 8.80039V7.94706C2.40039 6.75239 2.40039 6.15506 2.66199 5.69852C2.89239 5.29639 3.25839 4.97106 3.71079 4.76626C4.22439 4.53372 4.89639 4.53372 6.24039 4.53372H7.20039M21.6004 8.80039V7.94386C21.6004 6.75132 21.6004 6.15399 21.3388 5.69852C21.1083 5.29701 20.7408 4.97066 20.2888 4.76626C19.7764 4.53372 19.1044 4.53372 17.7604 4.53372H16.8004M7.20039 4.53372H16.8004M7.20039 4.53372V2.40039M16.8004 4.53372V2.40039M11.7004 17.3337C11.78 17.3337 11.8563 17.3056 11.9125 17.2556C11.9688 17.2056 12.0004 17.1378 12.0004 17.0671V13.3337C12.0004 13.263 11.9688 13.1952 11.9125 13.1452C11.8563 13.0952 11.78 13.0671 11.7004 13.0671H7.50039C7.42083 13.0671 7.34452 13.0952 7.28826 13.1452C7.232 13.1952 7.20039 13.263 7.20039 13.3337V17.0671C7.20039 17.2143 7.33479 17.3337 7.50039 17.3337H11.7004Z" stroke-width="1.6" stroke-linecap="round" stroke-linejoin="round"/>
</symbol>
<symbol id="shown" viewBox="0 0 24 24">
  <path stroke="none" d="M15.001 12.001C15.001 12.7966 14.6849 13.5597 14.1223 14.1223C13.5597 14.6849 12.7966 15.001 12.001 15.001C11.2053 15.001 10.4423 14.6849 9.87966 14.1223C9.31705 13.5597 9.00098 12.7966 9.00098 12.001C9.00098 11.2053 9.31705 10.4423 9.87966 9.87966C10.4423 9.31705 11.2053 9.00098 12.001 9.00098C12.7966 9.00098 13.5597 9.31705 14.1223 9.87966C14.6849 10.4423 15.001 11.2053 15.001 12.001Z" fill="#1F1F26"/>
  <path stroke="none" d="M21.8944 11.554C19.7364 7.23698 15.9044 5.00098 12.0004 5.00098C8.09744 5.00098 4.26444 7.23698 2.10644 11.554C2.03708 11.6928 2.00098 11.8458 2.00098 12.001C2.00098 12.1561 2.03708 12.3092 2.10644 12.448C4.26444 16.765 8.09644 19.001 12.0004 19.001C15.9034 19.001 19.7364 16.765 21.8944 12.448C21.9638 12.3092 21.9999 12.1561 21.9999 12.001C21.9999 11.8458 21.9638 11.6928 21.8944 11.554ZM12.0004 17.001C9.03144 17.001 5.99844 15.381 4.13044 12.001C5.99844 8.62098 9.03044 7.00098 12.0004 7.00098C14.9694 7.00098 18.0024 8.62098 19.8704 12.001C18.0024 15.381 14.9694 17.001 12.0004 17.001Z" fill="#1F1F26"/>
</symbol>
<symbol id="hidden" viewBox="0 0 24 24">
  <path stroke="none" d="M4.70647 3.29243C4.51786 3.11027 4.26526 3.00948 4.00306 3.01176C3.74087 3.01403 3.49006 3.1192 3.30465 3.30461C3.11924 3.49002 3.01407 3.74083 3.01179 4.00303C3.00951 4.26523 3.11031 4.51783 3.29247 4.70643L5.71647 7.13043C4.28647 8.20643 3.03847 9.68443 2.10547 11.5524C2.03611 11.6912 2 11.8443 2 11.9994C2 12.1546 2.03611 12.3076 2.10547 12.4464C4.26347 16.7634 8.09547 18.9994 11.9995 18.9994C13.5545 18.9994 15.0995 18.6444 16.5295 17.9444L19.2925 20.7064C19.4811 20.8886 19.7337 20.9894 19.9959 20.9871C20.2581 20.9848 20.5089 20.8797 20.6943 20.6942C20.8797 20.5088 20.9849 20.258 20.9871 19.9958C20.9894 19.7336 20.8886 19.481 20.7065 19.2924L4.70647 3.29243ZM15.0135 16.4274C14.0335 16.8104 13.0135 16.9994 11.9995 16.9994C9.03047 16.9994 5.99747 15.3794 4.12947 11.9994C4.94647 10.5204 5.98747 9.37943 7.14747 8.56243L9.29147 10.7064C9.02355 11.2664 8.93593 11.8957 9.04068 12.5075C9.14543 13.1193 9.4374 13.6836 9.87634 14.1226C10.3153 14.5615 10.8796 14.8535 11.4914 14.9582C12.1032 15.063 12.7325 14.9753 13.2925 14.7074L15.0125 16.4274H15.0135ZM18.5515 13.8954C19.0345 13.3394 19.4775 12.7084 19.8695 11.9994C18.0015 8.61943 14.9695 6.99943 11.9995 6.99943C11.8875 6.99943 11.7755 7.00143 11.6635 7.00643L9.87847 5.22243C10.5757 5.0743 11.2866 4.99955 11.9995 4.99943C15.9025 4.99943 19.7355 7.23543 21.8935 11.5524C21.9628 11.6912 21.9989 11.8443 21.9989 11.9994C21.9989 12.1546 21.9628 12.3076 21.8935 12.4464C21.3809 13.4821 20.7336 14.4455 19.9685 15.3114L18.5515 13.8954Z" fill="#1F1F26"/>
</symbol>
<symbol id="info" viewBox="0 0 24 24">
  <path fill="none" d="M12 11V16M12 21C10.8181 21 9.64778 20.7672 8.55585 20.3149C7.46392 19.8626 6.47177 19.1997 5.63604 18.364C4.80031 17.5282 4.13738 16.5361 3.68508 15.4442C3.23279 14.3522 3 13.1819 3 12C3 10.8181 3.23279 9.64778 3.68508 8.55585C4.13738 7.46392 4.80031 6.47177 5.63604 5.63604C6.47177 4.80031 7.46392 4.13738 8.55585 3.68508C9.64778 3.23279 10.8181 3 12 3C14.3869 3 16.6761 3.94821 18.364 5.63604C20.0518 7.32387 21 9.61305 21 12C21 14.3869 20.0518 16.6761 18.364 18.364C16.6761 20.0518 14.3869 21 12 21ZM12.05 8V8.1H11.95V8H12.05Z" stroke-width="1.6" stroke-linecap="round" stroke-linejoin="round"/>
</symbol>
<symbol id="link" viewBox="0 0 24 24">
  <path fill="none" d="M6.99805 13.0033L13.0041 6.99772M4.74513 9.24943L3.24389 10.7506C2.84953 11.1449 2.5367 11.613 2.32328 12.1283C2.10985 12.6435 2 13.1957 2 13.7534C2 14.3111 2.10985 14.8633 2.32328 15.3785C2.5367 15.8937 2.84953 16.3619 3.24389 16.7562C3.63825 17.1505 4.10642 17.4633 4.62168 17.6767C5.13694 17.8902 5.68919 18 6.2469 18C6.80461 18 7.35686 17.8902 7.87212 17.6767C8.38738 17.4633 8.85555 17.1505 9.24991 16.7562L10.749 15.2551M9.24885 4.74495L10.7501 3.24381C11.1445 2.84947 11.6126 2.53667 12.1279 2.32325C12.6431 2.10984 13.1954 2 13.7531 2C14.3108 2 14.8631 2.10984 15.3783 2.32325C15.8936 2.53667 16.3618 2.84947 16.7561 3.24381C17.1505 3.63814 17.4633 4.10628 17.6767 4.62151C17.8902 5.13673 18 5.68894 18 6.24662C18 6.80429 17.8902 7.35651 17.6767 7.87173C17.4633 8.38695 17.1505 8.8551 16.7561 9.24943L15.2549 10.7506" stroke-width="1.6" stroke-linecap="round" stroke-linejoin="round"/>
</symbol>
<symbol id="reload" viewBox="0 0 24 24">
  <path fill="none" d="M10 16H5.00001V21M14 8H19V3M4.58301 9.003C5.1438 7.61545 6.08257 6.41302 7.29264 5.53237C8.5027 4.65171 9.93553 4.12815 11.4283 4.02118C12.9211 3.9142 14.4139 4.2281 15.7372 4.92721C17.0605 5.62631 18.1611 6.68259 18.914 7.976M19.418 14.997C18.8573 16.3848 17.9186 17.5875 16.7084 18.4683C15.4982 19.3492 14.0652 19.8729 12.5723 19.9798C11.0793 20.0868 9.58628 19.7728 8.26289 19.0735C6.9395 18.3742 5.83884 17.3177 5.08601 16.024" stroke-width="1.6" stroke-linecap="round" stroke-linejoin="round"/>
</symbol>
<symbol id="success-filled" viewBox="0 0 24 24">
  <path stroke="none" d="M12 1C14.9174 1 17.7153 2.15893 19.7782 4.22183C21.8411 6.28473 23 9.08262 23 12C23 14.9174 21.8411 17.7153 19.7782 19.7782C17.7153 21.8411 14.9174 23 12 23C9.08262 23 6.28473 21.8411 4.22183 19.7782C2.15893 17.7153 1 14.9174 1 12C1 9.08262 2.15893 6.28473 4.22183 4.22183C6.28473 2.15893 9.08262 1 12 1ZM10.6297 14.1701L8.18614 11.725C8.09854 11.6374 7.99454 11.5679 7.88009 11.5205C7.76563 11.4731 7.64296 11.4487 7.51907 11.4487C7.39518 11.4487 7.27251 11.4731 7.15805 11.5205C7.0436 11.5679 6.9396 11.6374 6.852 11.725C6.67508 11.9019 6.57569 12.1419 6.57569 12.3921C6.57569 12.6423 6.67508 12.8822 6.852 13.0591L9.96343 16.1706C10.0508 16.2586 10.1547 16.3285 10.2692 16.3762C10.3837 16.4239 10.5065 16.4484 10.6305 16.4484C10.7545 16.4484 10.8773 16.4239 10.9918 16.3762C11.1063 16.3285 11.2102 16.2586 11.2976 16.1706L17.7404 9.72614C17.8292 9.6389 17.8998 9.53495 17.9482 9.42029C17.9966 9.30562 18.0218 9.1825 18.0224 9.05804C18.023 8.93358 17.9989 8.81024 17.9516 8.69513C17.9043 8.58001 17.8346 8.47541 17.7467 8.38735C17.6587 8.29929 17.5542 8.22952 17.4391 8.18205C17.3241 8.13459 17.2007 8.11038 17.0763 8.11081C16.9518 8.11124 16.8287 8.13631 16.714 8.18457C16.5992 8.23283 16.4952 8.30333 16.4079 8.392L10.6297 14.1701Z" fill="#23C16B"/>
</symbol>
<symbol id="warning-filled" viewBox="0 0 24 24">
  <path stroke="none" fill="#ffb323" d="M12 1c-6.050 0-11 4.95-11 11s4.95 11 11 11c6.050 0 11-4.95 11-11s-4.95-11-11-11zM11.136 6.579c0-0.477 0.387-0.864 0.864-0.864s0.864 0.387 0.864 0.864v6.914c0 0.477-0.387 0.864-0.864 0.864s-0.864-0.387-0.864-0.864v-6.914zM12 19.071c-0.629 0-1.179-0.55-1.179-1.179s0.55-1.179 1.179-1.179 1.179 0.55 1.179 1.179c0 0.628-0.55 1.179-1.179 1.179z"></path>
</symbol>
<symbol id="error-filled" viewBox="0 0 24 24">
  <path stroke="none" d="M22.6857 18.4089L14.0973 3.22205C13.8826 2.84998 13.5763 2.54148 13.2085 2.32712C12.8407 2.11277 12.4243 2 12.0005 2C11.5767 2 11.1603 2.11277 10.7925 2.32712C10.4247 2.54148 10.1183 2.84998 9.90372 3.22205L1.31532 18.4089C1.10882 18.7688 1 19.1781 1 19.5949C1 20.0117 1.10882 20.421 1.31532 20.7809C1.52719 21.1552 1.83305 21.4654 2.20153 21.6796C2.57 21.8938 2.98781 22.0044 3.41209 21.9999H20.5889C21.0128 22.004 21.4302 21.8933 21.7983 21.6791C22.1664 21.4649 22.472 21.1549 22.6837 20.7809C22.8905 20.4212 22.9997 20.012 23 19.5952C23.0003 19.1784 22.8919 18.769 22.6857 18.4089ZM11.2148 9.99999C11.2148 9.78782 11.2976 9.58433 11.4449 9.43431C11.5923 9.28428 11.7921 9.2 12.0005 9.2C12.2089 9.2 12.4087 9.28428 12.556 9.43431C12.7034 9.58433 12.7862 9.78782 12.7862 9.99999V13.9999C12.7862 14.2121 12.7034 14.4156 12.556 14.5656C12.4087 14.7157 12.2089 14.7999 12.0005 14.7999C11.7921 14.7999 11.5923 14.7157 11.4449 14.5656C11.2976 14.4156 11.2148 14.2121 11.2148 13.9999V9.99999ZM12.0005 18.7999C11.7674 18.7999 11.5395 18.7295 11.3457 18.5977C11.1519 18.4658 11.0009 18.2784 10.9117 18.0591C10.8225 17.8399 10.7992 17.5986 10.8446 17.3658C10.8901 17.133 11.0023 16.9192 11.1672 16.7514C11.332 16.5836 11.542 16.4693 11.7706 16.423C11.9992 16.3767 12.2361 16.4004 12.4515 16.4913C12.6668 16.5821 12.8509 16.7359 12.9804 16.9332C13.1099 17.1306 13.179 17.3626 13.179 17.5999C13.179 17.9182 13.0548 18.2234 12.8338 18.4484C12.6128 18.6735 12.3131 18.7999 12.0005 18.7999Z" fill="#E6674E"/>
</symbol>
<symbol id="info-filled" viewBox="0 0 24 24">
  <path stroke="none" d="M11.9989 1C18.0747 1 23 5.92531 23 12.0011C23 18.0758 18.0747 23 11.9989 23C5.92311 23.0011 1 18.0758 1 12.0011C0.9989 5.92531 5.92311 1 11.9989 1ZM11.9945 10.0741C11.725 10.0745 11.4649 10.1738 11.2638 10.3532C11.0626 10.5327 10.9344 10.7797 10.9034 11.0475L10.8957 11.1751L10.9001 17.2267L10.9067 17.3543C10.9374 17.6225 11.0658 17.8701 11.2673 18.0499C11.4688 18.2296 11.7294 18.329 11.9994 18.329C12.2695 18.329 12.5301 18.2296 12.7316 18.0499C12.9331 17.8701 13.0615 17.6225 13.0922 17.3543L13.0988 17.2256L13.0944 11.174L13.0867 11.0453C13.0549 10.7778 12.926 10.5312 12.7245 10.3524C12.523 10.1736 12.2628 10.0749 11.9934 10.0752L11.9945 10.0741ZM12 5.9506C11.6349 5.9506 11.2848 6.09563 11.0267 6.35378C10.7685 6.61192 10.6235 6.96204 10.6235 7.32712C10.6235 7.69219 10.7685 8.04231 11.0267 8.30046C11.2848 8.5586 11.6349 8.70363 12 8.70363C12.1807 8.70356 12.3596 8.6679 12.5265 8.59868C12.6934 8.52946 12.8451 8.42805 12.9728 8.30023C13.1005 8.17241 13.2018 8.02068 13.2709 7.85372C13.34 7.68675 13.3755 7.50781 13.3754 7.32712C13.3753 7.14642 13.3397 6.96751 13.2705 6.8006C13.2012 6.63369 13.0998 6.48204 12.972 6.35433C12.8442 6.22661 12.6925 6.12532 12.5255 6.05623C12.3585 5.98715 12.1796 5.95163 11.9989 5.9517L12 5.9506Z" fill="#0078FF"/>
</symbol>
</defs>
</svg>
