<svg width="41" height="40" viewBox="0 0 41 40" fill="none" xmlns="http://www.w3.org/2000/svg">
<rect x="1.5" y="1" width="38" height="38" rx="19" fill="white"/>
<path d="M16.7131 26V24.7273L20.6506 20.6477C21.071 20.2045 21.4176 19.8163 21.6903 19.483C21.9669 19.1458 22.1733 18.8258 22.3097 18.5227C22.446 18.2197 22.5142 17.8977 22.5142 17.5568C22.5142 17.1705 22.4233 16.8371 22.2415 16.5568C22.0597 16.2727 21.8116 16.0549 21.4972 15.9034C21.1828 15.7481 20.8286 15.6705 20.4347 15.6705C20.018 15.6705 19.6544 15.7557 19.3438 15.9261C19.0331 16.0966 18.7945 16.3371 18.6278 16.6477C18.4612 16.9583 18.3778 17.322 18.3778 17.7386H16.7017C16.7017 17.0303 16.8646 16.411 17.1903 15.8807C17.5161 15.3504 17.9631 14.9394 18.5312 14.6477C19.0994 14.3523 19.7453 14.2045 20.4688 14.2045C21.1998 14.2045 21.8438 14.3504 22.4006 14.642C22.9612 14.9299 23.3987 15.3239 23.7131 15.8239C24.0275 16.3201 24.1847 16.8807 24.1847 17.5057C24.1847 17.9375 24.1032 18.3598 23.9403 18.7727C23.7813 19.1856 23.5028 19.6458 23.1051 20.1534C22.7074 20.6572 22.1544 21.2689 21.446 21.9886L19.1335 24.4091V24.4943H24.3722V26H16.7131Z" fill="#6168E4"/>
<rect x="1.5" y="1" width="38" height="38" rx="19" stroke="#6168E4" stroke-width="2"/>
</svg>
