<svg width="40" height="40" viewBox="0 0 40 40" fill="none" xmlns="http://www.w3.org/2000/svg">
<rect width="40" height="40" rx="20" fill="#6168E4"/>
<path d="M20 9.01406C22.9137 9.01406 25.708 10.1715 27.7682 12.2318C29.8285 14.292 30.9859 17.0863 30.9859 20C30.9859 22.9137 29.8285 25.708 27.7682 27.7682C25.708 29.8285 22.9137 30.9859 20 30.9859C17.0863 30.9859 14.292 29.8285 12.2318 27.7682C10.1715 25.708 9.01406 22.9137 9.01406 20C9.01406 17.0863 10.1715 14.292 12.2318 12.2318C14.292 10.1715 17.0863 9.01406 20 9.01406ZM14.8421 21.0691L17.9534 24.1805L17.9535 24.1805C18.0421 24.2699 18.1476 24.3408 18.2638 24.3892C18.38 24.4376 18.5046 24.4625 18.6305 24.4625C18.7564 24.4625 18.881 24.4376 18.9972 24.3892C19.1134 24.3408 19.2189 24.2698 19.3076 24.1805L25.7503 17.7362C25.8404 17.6476 25.9121 17.5421 25.9612 17.4258C26.0103 17.3094 26.0359 17.1844 26.0365 17.0581C26.0371 16.9318 26.0126 16.8066 25.9646 16.6898C25.9166 16.573 25.8459 16.4668 25.7566 16.3774C25.6673 16.288 25.5613 16.2172 25.4445 16.1691C25.3277 16.1209 25.2026 16.0963 25.0762 16.0967C24.9499 16.0972 24.8249 16.1226 24.7085 16.1716C24.5921 16.2206 24.4865 16.2921 24.3979 16.3821C24.3979 16.3821 24.3978 16.3821 24.3978 16.3821L18.6297 22.1503L16.1961 19.7151C16.1072 19.6261 16.0016 19.5556 15.8855 19.5075C15.7693 19.4594 15.6448 19.4346 15.5191 19.4346C15.3933 19.4346 15.2688 19.4594 15.1527 19.5075C15.0365 19.5556 14.931 19.6261 14.8421 19.7151C14.6625 19.8946 14.5616 20.1381 14.5616 20.3921C14.5616 20.646 14.6625 20.8895 14.8421 21.0691Z" fill="white" stroke="white" stroke-width="0.028125"/>
</svg>
