<svg width="40" height="40" viewBox="0 0 40 40" fill="none" xmlns="http://www.w3.org/2000/svg">
<rect width="40" height="40" rx="20" fill="#E6674E"/>
<path d="M30.6367 26.4366L30.6368 26.4369C30.8381 26.7884 30.9441 27.1881 30.9437 27.5951C30.9434 28.0021 30.8368 28.4017 30.6349 28.7528L30.6347 28.7532C30.4279 29.1186 30.1294 29.4213 29.77 29.6305C29.4107 29.8396 29.0032 29.9477 28.5894 29.9436H28.5889L11.4121 29.9436L11.4115 29.9436C10.9974 29.948 10.5896 29.8401 10.2298 29.631C9.87003 29.4218 9.57127 29.1189 9.36428 28.7532L9.36411 28.7529C9.16253 28.4016 9.05625 28.0019 9.05625 27.5949C9.05625 27.1879 9.16253 26.7882 9.36411 26.4369L9.36429 26.4366L17.9524 11.2502C17.9525 11.2501 17.9525 11.25 17.9526 11.25C18.1623 10.8864 18.4617 10.5851 18.8208 10.3757C19.1801 10.1664 19.5867 10.0563 20.0005 10.0563C20.4143 10.0563 20.8209 10.1664 21.1801 10.3757C21.5393 10.5851 21.8387 10.8864 22.0484 11.25C22.0485 11.25 22.0485 11.2501 22.0485 11.2502L30.6367 26.4366ZM19.4048 17.3949C19.247 17.5555 19.1586 17.7732 19.1586 18V21.9999C19.1586 22.2267 19.247 22.4444 19.4048 22.605C19.5626 22.7657 19.7769 22.8562 20.0005 22.8562C20.2241 22.8562 20.4384 22.7657 20.5962 22.605C20.754 22.4444 20.8424 22.2267 20.8424 21.9999V18C20.8424 17.7732 20.754 17.5555 20.5962 17.3949C20.4384 17.2342 20.2241 17.1437 20.0005 17.1437C19.7769 17.1437 19.5626 17.2342 19.4048 17.3949ZM19.3141 26.6442C19.5172 26.7823 19.756 26.8561 20.0005 26.8561C20.3283 26.8561 20.6425 26.7235 20.874 26.4878C21.1054 26.2522 21.2353 25.9328 21.2353 25.5999C21.2353 25.3517 21.163 25.1089 21.0274 24.9024C20.8919 24.6958 20.6991 24.5346 20.4733 24.4394C20.2476 24.3442 19.9991 24.3193 19.7594 24.3679C19.5197 24.4164 19.2996 24.5362 19.127 24.712C18.9544 24.8877 18.837 25.1115 18.7894 25.355C18.7419 25.5985 18.7663 25.8509 18.8596 26.0803C18.9529 26.3098 19.111 26.506 19.3141 26.6442Z" fill="white" stroke="white" stroke-width="0.1125"/>
</svg>
