<svg width="40" height="40" viewBox="0 0 40 40" fill="none" xmlns="http://www.w3.org/2000/svg">
<rect x="0.5" y="0.5" width="39" height="39" rx="19.5" fill="white"/>
<path d="M20.0142 26.1591C19.2339 26.1591 18.5369 26.0246 17.9233 25.7557C17.3134 25.4867 16.8305 25.1136 16.4744 24.6364C16.1222 24.1553 15.9328 23.5985 15.9062 22.9659H17.6903C17.7131 23.3106 17.8286 23.6098 18.0369 23.8636C18.2491 24.1136 18.5256 24.3068 18.8665 24.4432C19.2074 24.5795 19.5862 24.6477 20.0028 24.6477C20.4612 24.6477 20.8665 24.5682 21.2188 24.4091C21.5748 24.25 21.8532 24.0284 22.054 23.7443C22.2547 23.4564 22.3551 23.125 22.3551 22.75C22.3551 22.3598 22.2547 22.017 22.054 21.7216C21.857 21.4223 21.5672 21.1875 21.1847 21.017C20.8059 20.8466 20.3475 20.7614 19.8097 20.7614H18.8267V19.3295H19.8097C20.2415 19.3295 20.6203 19.2519 20.946 19.0966C21.2756 18.9413 21.5331 18.7254 21.7188 18.4489C21.9044 18.1686 21.9972 17.8409 21.9972 17.4659C21.9972 17.1061 21.9157 16.7936 21.7528 16.5284C21.5938 16.2595 21.3665 16.0492 21.071 15.8977C20.7794 15.7462 20.4347 15.6705 20.0369 15.6705C19.6581 15.6705 19.304 15.7405 18.9744 15.8807C18.6487 16.017 18.3835 16.214 18.179 16.4716C17.9744 16.7254 17.8646 17.0303 17.8494 17.3864H16.1506C16.1695 16.7576 16.3551 16.2045 16.7074 15.7273C17.0634 15.25 17.5331 14.8769 18.1165 14.608C18.6998 14.339 19.3475 14.2045 20.0597 14.2045C20.8059 14.2045 21.4498 14.3504 21.9915 14.642C22.5369 14.9299 22.9574 15.3144 23.2528 15.7955C23.5521 16.2765 23.6998 16.803 23.696 17.375C23.6998 18.0265 23.518 18.5795 23.1506 19.0341C22.7869 19.4886 22.3021 19.7936 21.696 19.9489V20.0398C22.4688 20.1572 23.0672 20.464 23.4915 20.9602C23.9195 21.4564 24.1316 22.072 24.1278 22.8068C24.1316 23.447 23.9536 24.0208 23.5938 24.5284C23.2377 25.036 22.7509 25.4356 22.1335 25.7273C21.5161 26.0152 20.8097 26.1591 20.0142 26.1591Z" fill="#A5A8BA"/>
<rect x="0.5" y="0.5" width="39" height="39" rx="19.5" stroke="#A5A8BA"/>
</svg>
