<svg width="32" height="32" viewBox="0 0 32 32" fill="none" xmlns="http://www.w3.org/2000/svg">
<rect width="32" height="32" rx="16" fill="#393E86"/>
<path d="M6.51562 9.15663L9.40748 6.26477L10.1116 6.96889L7.21974 9.86074L6.51562 9.15663ZM11.5686 9.88386L14.4608 6.99271L15.1649 7.69683L12.2727 10.588L11.5686 9.88386ZM21.4863 24.1287L24.3788 21.2376L25.083 21.942L22.1904 24.8332L21.4863 24.1287ZM20.764 19.0445L23.6566 16.1533L24.3607 16.8578L21.4678 19.749L20.764 19.0445Z" fill="#A5A8BA"/>
<path d="M24.0094 26.2083L22.338 11.237L20.0976 8.99658L5.12627 7.3252C4.41504 7.25407 4.55728 9.03214 5.3752 9.42332L16.6482 14.6864L21.9113 25.9594C22.3024 26.7773 24.0805 26.9196 24.0094 26.2083Z" fill="#9AA0FE"/>
<path d="M25.752 7.50236C26.5344 5.97322 25.3608 4.79969 23.8317 5.58204C21.8758 6.57776 18.9953 8.81813 16.0793 11.6986C11.5274 16.2505 8.61139 20.7668 9.57155 21.7625C10.5317 22.7227 15.0836 19.8066 19.6354 15.2548C22.5159 12.3743 24.7563 9.45824 25.752 7.50236Z" fill="#FAFAFC"/>
<path d="M11.9196 26.0299L11.3506 20.7668L10.5682 19.9845L5.30514 19.4155C5.05621 19.3799 5.09177 20.02 5.37626 20.1623L9.32358 22.0115L11.1728 25.9588C11.315 26.2433 11.9551 26.2788 11.9196 26.0299Z" fill="#9AA0FE"/>
<path d="M11.136 21.0514C9.5357 22.6517 8.07768 23.7541 7.86431 23.5051C7.65095 23.2918 8.75335 21.7982 10.3181 20.1979C11.9183 18.5977 13.3763 17.4953 13.6253 17.7442C13.8031 17.9576 12.7007 19.4511 11.136 21.0514Z" fill="#A5A8BA"/>
<path d="M25.2173 8.07185C25.3951 7.43175 25.324 6.8272 24.9328 6.40047C24.5416 6.00929 23.9015 5.90261 23.297 6.11597L22.0879 6.86276C22.6924 6.6494 23.5815 6.96945 23.9726 7.36062C24.3994 7.78736 24.6839 8.64084 24.4705 9.24538L25.2173 8.07185Z" fill="#3E4347"/>
<path d="M23.0371 8.06992L25.0478 6.0575L25.2743 6.28367L23.2633 8.29644L23.0371 8.06992Z" fill="#FAFAFC"/>
</svg>
