<svg width="24" height="24" viewBox="0 0 24 24" fill="none" xmlns="http://www.w3.org/2000/svg">
<path d="M12 2C17.524 2 22.002 6.478 22.002 12.002C22.002 17.525 17.524 22.002 12 22.002C6.476 22.003 2 17.525 2 12.002C1.999 6.478 6.476 2 12 2ZM11.996 10.25C11.7509 10.2503 11.5145 10.3406 11.3316 10.5038C11.1488 10.6669 11.0322 10.8916 11.004 11.135L10.997 11.251L11.001 16.753L11.007 16.869C11.0349 17.1129 11.1516 17.338 11.3349 17.5014C11.5181 17.6649 11.755 17.7552 12.0005 17.7552C12.246 17.7552 12.4829 17.6649 12.6661 17.5014C12.8494 17.338 12.9661 17.1129 12.994 16.869L13 16.752L12.996 11.25L12.989 11.133C12.9601 10.8898 12.8429 10.6656 12.6597 10.503C12.4765 10.3404 12.24 10.2508 11.995 10.251L11.996 10.25ZM12.001 6.501C11.6691 6.501 11.3508 6.63285 11.1161 6.86756C10.8814 7.10226 10.7495 7.42058 10.7495 7.7525C10.7495 8.08442 10.8814 8.40274 11.1161 8.63744C11.3508 8.87215 11.6691 9.004 12.001 9.004C12.1653 9.00393 12.3279 8.97151 12.4797 8.90858C12.6315 8.84565 12.7693 8.75345 12.8854 8.63724C13.0016 8.52102 13.0937 8.38308 13.1565 8.23127C13.2193 8.07947 13.2516 7.91678 13.2515 7.7525C13.2514 7.58822 13.219 7.42555 13.1561 7.2738C13.0932 7.12205 13.0009 6.98418 12.8847 6.86806C12.7685 6.75194 12.6306 6.65984 12.4788 6.59704C12.327 6.53423 12.1643 6.50193 12 6.502L12.001 6.501Z" fill="#0078FF"/>
</svg>
