<svg width="32" height="32" viewBox="0 0 32 32" fill="none" xmlns="http://www.w3.org/2000/svg">
<g id="Circles">
<path id="Ellipse 17" d="M8.44186 16.1474C8.44186 12.0435 12.033 8.59878 16.6136 8.59878C21.1942 8.59878 24.7853 12.0435 24.7853 16.1474C24.7853 20.2513 21.1942 23.696 16.6136 23.696C12.033 23.696 8.44186 20.2513 8.44186 16.1474Z" stroke="#3E6CBF" stroke-width="2"/>
<path id="Ellipse 27" d="M6.51073 17.5721C6.51073 12.1069 11.0184 7.64885 16.6134 7.64885C22.2083 7.64885 26.716 12.1069 26.716 17.5721C26.716 23.0373 22.2083 27.4954 16.6134 27.4954C11.0184 27.4954 6.51073 23.0373 6.51073 17.5721Z" stroke="#FFF6DE" stroke-width="2"/>
<path id="Ellipse 24" d="M7.47641 16.6223C7.47641 11.6355 11.3815 7.64889 16.1309 7.64889C20.8802 7.64889 24.7853 11.6355 24.7853 16.6223C24.7853 21.6091 20.8802 25.5957 16.1309 25.5957C11.3815 25.5957 7.47641 21.6091 7.47641 16.6223Z" stroke="#C5D9FF" stroke-width="2"/>
<path id="Ellipse 18" d="M5.54552 17.5721C5.54552 12.0649 9.87886 7.64885 15.1654 7.64885C20.452 7.64885 24.7853 12.0649 24.7853 17.5721C24.7853 23.0793 20.452 27.4954 15.1654 27.4954C9.87886 27.4954 5.54552 23.0793 5.54552 17.5721Z" stroke="#3E6CBF" stroke-width="2"/>
<path id="Ellipse 22" d="M2.75077 17.12C2.75077 9.85043 8.74527 3.92954 16.1743 3.92954C23.6033 3.92954 29.5978 9.85043 29.5978 17.12C29.5978 24.3897 23.6033 30.3105 16.1743 30.3105C8.74527 30.3105 2.75077 24.3897 2.75077 17.12Z" stroke="#C5D9FF" stroke-width="2"/>
<path id="Ellipse 23" d="M1.87472 16.7324C1.87472 8.86795 8.35936 2.46485 16.393 2.46485C24.4267 2.46485 30.9113 8.86795 30.9113 16.7324C30.9113 24.5969 24.4267 31 16.393 31C8.35936 31 1.87472 24.5969 1.87472 16.7324Z" stroke="#3E6CBF" stroke-width="2"/>
<path id="Ellipse 25" d="M6.0795 16.6032C6.0795 10.7137 10.9369 5.91156 16.9632 5.91156C22.9895 5.91156 27.8469 10.7137 27.8469 16.6032C27.8469 22.4928 22.9895 27.2949 16.9632 27.2949C10.9369 27.2949 6.0795 22.4928 6.0795 16.6032Z" stroke="#3E6CBF" stroke-width="2"/>
<path id="Ellipse 26" d="M5.55099 16.0862C5.55099 9.91115 10.6436 4.87756 16.9602 4.87756C23.2767 4.87756 28.3693 9.91115 28.3693 16.0862C28.3693 22.2613 23.2767 27.2949 16.9602 27.2949C10.6436 27.2949 5.55099 22.2613 5.55099 16.0862Z" stroke="#FFF6DE" stroke-width="2"/>
<path id="Ellipse 28" d="M1.00018 15.7414C1.00018 7.61521 7.70049 0.999922 16.0002 0.999922C24.2999 0.999922 31.0002 7.61521 31.0002 15.7414C31.0002 23.8676 24.2999 30.4829 16.0002 30.4829C7.70049 30.4829 1.00018 23.8676 1.00018 15.7414Z" stroke="#FFF6DE" stroke-width="2"/>
<path id="Ellipse 19" d="M8.35661 15.4829C8.35661 10.212 12.7042 5.9114 18.1017 5.9114C23.4992 5.9114 27.8469 10.212 27.8469 15.4829C27.8469 20.7538 23.4992 25.0544 18.1017 25.0544C12.7042 25.0544 8.35661 20.7538 8.35661 15.4829Z" stroke="#4376CA" stroke-width="2"/>
<path id="Ellipse 20" d="M5.72649 16.1294C5.72649 10.5016 10.3682 5.91164 16.1285 5.91164C21.8887 5.91164 26.5305 10.5016 26.5305 16.1294C26.5305 21.7572 21.8887 26.3472 16.1285 26.3472C10.3682 26.3472 5.72649 21.7572 5.72649 16.1294Z" stroke="#C5D9FF" stroke-width="2"/>
</g>
</svg>
